<?xml version="1.0" encoding="UTF-8"?>
<svg version="1.1" xmlns="http://www.w3.org/2000/svg" width="390" height="390">
<path d="M0 0 C128.7 0 257.4 0 390 0 C390 128.7 390 257.4 390 390 C261.3 390 132.6 390 0 390 C0 261.3 0 132.6 0 0 Z " fill="#19E55D" transform="translate(0,0)"/>
<path d="M0 0 C128.7 0 257.4 0 390 0 C390 128.7 390 257.4 390 390 C261.3 390 132.6 390 0 390 C0 261.3 0 132.6 0 0 Z M123 27 C121.33487921 27.67051844 119.66880921 28.33871486 118 29 C118 29.66 118 30.32 118 31 C116.89591797 31.17402344 116.89591797 31.17402344 115.76953125 31.3515625 C110.9325292 32.48406227 107.13341378 35.31986291 103 38 C102.09483643 38.58515381 102.09483643 38.58515381 101.17138672 39.18212891 C92.58227908 44.77887461 84.74998576 50.67622058 77.35546875 57.78515625 C75 60 75 60 72 62 C72 62.66 72 63.32 72 64 C71.01 64.33 70.02 64.66 69 65 C66.41961913 67.42943937 64.2529632 70.26937676 62 73 C61.55946289 73.52432617 61.11892578 74.04865234 60.66503906 74.58886719 C46.70623744 91.23897884 35.53387696 109.55579752 28 130 C27.51273438 131.23169922 27.51273438 131.23169922 27.015625 132.48828125 C23.93683185 140.48130192 21.82455768 148.64833827 20 157 C19.84611816 157.67933594 19.69223633 158.35867187 19.53369141 159.05859375 C14.72970792 181.03746737 15.17432979 206.05589969 20 228 C20.21462891 228.9796875 20.42925781 229.959375 20.65039062 230.96875 C23.20260192 242.33066033 25.84029973 253.50816732 31 264 C31.70499309 265.51926873 32.40936048 267.03882788 33.11328125 268.55859375 C40.69439435 284.60696438 50.48239434 298.54047246 62 312 C62.60328125 312.72574219 63.2065625 313.45148438 63.828125 314.19921875 C67.25147565 318.24709959 70.86970125 321.80527333 74.91796875 325.2265625 C76.32082668 326.42149215 77.69847329 327.6465867 79.05078125 328.8984375 C85.24977695 334.63279184 91.98520759 339.343121 99 344 C99.91910156 344.62003906 100.83820313 345.24007813 101.78515625 345.87890625 C111.48515675 352.26462086 121.65733331 357.59136231 132.79296875 360.98046875 C135.61838635 361.87868311 138.35130717 362.89189116 141.12109375 363.9453125 C146.9487322 366.07737535 152.79773424 367.47058127 158.875 368.6875 C160.46731445 369.00883911 160.46731445 369.00883911 162.09179688 369.33666992 C169.41674099 370.7738923 176.52313723 371.8857248 184 372 C184.85529297 372.01901367 185.71058594 372.03802734 186.59179688 372.05761719 C229.69098893 372.93572364 267.75892335 361.70991089 302 335 C302.92296875 334.29488281 303.8459375 333.58976562 304.796875 332.86328125 C309.4927496 329.21633722 313.35548097 325.68581018 317 321 C319.39179247 318.54987113 321.82524731 316.1653066 324.3125 313.8125 C326.22713951 312.16877727 326.22713951 312.16877727 326 310 C326.66 310 327.32 310 328 310 C329.63139937 308.07412421 331.13723225 306.15673283 332.625 304.125 C333.04523438 303.56941406 333.46546875 303.01382812 333.8984375 302.44140625 C336.25944906 299.5322565 336.25944906 299.5322565 337 296 C337.66 296 338.32 296 339 296 C340.50731982 293.96571603 340.50731982 293.96571603 342.01171875 291.3125 C342.89621704 289.81203125 342.89621704 289.81203125 343.79858398 288.28125 C344.42192627 287.1984375 345.04526855 286.115625 345.6875 285 C346.32308838 283.8965625 346.95867676 282.793125 347.61352539 281.65625 C370.16837443 242.00649869 377.29981372 193.75362193 368 149 C367.83902832 148.21141602 367.67805664 147.42283203 367.51220703 146.61035156 C359.27759622 107.99232086 336.65226106 74.39342241 306 50 C304.58460938 48.824375 304.58460938 48.824375 303.140625 47.625 C287.53226114 35.00891315 269.97490606 26.31866264 251 20 C249.87102295 19.61956543 249.87102295 19.61956543 248.71923828 19.23144531 C231.95716634 13.6778145 215.30798606 11.44173794 197.6875 11.625 C196.88361847 11.62965271 196.07973694 11.63430542 195.25149536 11.63909912 C169.42619153 11.81373056 146.77091052 16.94657033 123 27 Z " fill="#0E1013" transform="translate(0,0)"/>
<path d="M0 0 C0.63615234 0.33386719 1.27230469 0.66773438 1.92773438 1.01171875 C3.47943107 1.82840122 5.02197571 2.6624334 6.5625 3.5 C6.5625 4.16 6.5625 4.82 6.5625 5.5 C7.38234375 5.72816406 8.2021875 5.95632812 9.046875 6.19140625 C13.34350031 7.79070567 16.94588472 10.00129179 20.8125 12.4375 C22.41263113 13.4311978 24.01289547 14.42468113 25.61328125 15.41796875 C26.43006348 15.92763184 27.2468457 16.43729492 28.08837891 16.96240234 C31.27858207 18.94502515 34.48650573 20.89767867 37.69628906 22.84838867 C40.67233988 24.65906139 43.6406014 26.48229859 46.60888672 28.30566406 C48.32833396 29.35684326 50.0561178 30.39436023 51.78515625 31.4296875 C67.58312888 41.07289442 80.22582501 55.19895038 85.5 73.25 C86.58107456 78.28606159 86.86304369 83.24137518 86.9375 88.375 C86.95159912 89.08881836 86.96569824 89.80263672 86.98022461 90.53808594 C86.92785773 96.18310296 85.64140033 100.35180299 81.6875 104.4375 C78.83668413 105.86290793 77.60415942 105.35767722 74.5625 104.5 C72.0546875 103.15234375 72.0546875 103.15234375 69.4375 101.4375 C68.47328125 100.80585938 67.5090625 100.17421875 66.515625 99.5234375 C63.69486261 97.5906929 60.93627314 95.59594913 58.1875 93.5625 C44.81115991 83.79474883 29.52789237 74.40352438 12.3984375 74.47875977 C11.04177979 74.4833596 11.04177979 74.4833596 9.65771484 74.48805237 C8.6205835 74.49396645 8.6205835 74.49396645 7.5625 74.5 C7.59279297 75.61777832 7.62308594 76.73555664 7.65429688 77.88720703 C8.36139487 104.66918865 8.69344411 131.44713821 8.74417114 158.23757172 C8.74996118 160.54701408 8.75965589 162.85640883 8.77050781 165.16583252 C8.78734167 168.86307671 8.79338332 172.56019798 8.79169655 176.25747871 C8.79291572 178.26052878 8.80355422 180.26356644 8.81462097 182.2665863 C8.7854877 194.19977839 8.28294179 206.62437821 3.8125 217.8125 C3.55299561 218.46710205 3.29349121 219.1217041 3.02612305 219.79614258 C0.65877051 225.61158005 -2.21579843 231.11244864 -5.4375 236.5 C-5.94925781 237.42425781 -6.46101563 238.34851563 -6.98828125 239.30078125 C-7.46652344 240.02652344 -7.94476563 240.75226563 -8.4375 241.5 C-9.0975 241.5 -9.7575 241.5 -10.4375 241.5 C-10.68886719 242.07234375 -10.94023437 242.6446875 -11.19921875 243.234375 C-18.33702329 256.29408046 -35.09359052 263.74994323 -48.4375 268.5 C-66.26636809 273.60799527 -84.23900444 269.97867336 -100.2578125 261.40625 C-117.21625823 251.23951595 -128.46590547 236.03575202 -133.86401367 217.14868164 C-134.86596522 212.52110723 -134.92461076 207.9693728 -134.875 203.25 C-134.86815186 202.24364502 -134.86130371 201.23729004 -134.85424805 200.20043945 C-134.47153803 182.35067235 -127.16899723 166.7405294 -114.8984375 153.828125 C-99.86845613 139.53448277 -82.19199868 132.92062502 -61.5546875 133.296875 C-50.84943052 133.7023397 -35.38065025 137.55684975 -27.4375 145.5 C-27.43934359 144.78639659 -27.44118717 144.07279318 -27.44308662 143.33756542 C-27.48722453 125.98684944 -27.52033651 108.63614769 -27.54112434 91.28538799 C-27.55144396 82.89474664 -27.56551737 74.50414272 -27.58837891 66.11352539 C-27.60829182 58.8016321 -27.62121145 51.48976591 -27.62567699 44.17784625 C-27.62828794 40.30500452 -27.63443897 36.43224036 -27.64896011 32.55942345 C-27.66251092 28.91596123 -27.66672774 25.27260871 -27.66371536 21.62912369 C-27.66452998 19.65086216 -27.67530469 17.67261263 -27.68634033 15.69438171 C-27.683591 14.52069031 -27.68084167 13.3469989 -27.67800903 12.13774109 C-27.67985262 11.11547267 -27.68169621 10.09320425 -27.68359566 9.039958 C-27.4375 6.5 -27.4375 6.5 -25.4375 3.5 C-24.7775 3.5 -24.1175 3.5 -23.4375 3.5 C-23.1590625 2.6028125 -23.1590625 2.6028125 -22.875 1.6875 C-17.50869872 -6.47861065 -7.15232343 -3.92053284 0 0 Z " fill="#0E1012" transform="translate(203.4375,54.5)"/>
<path d="M0 0 C3.86657071 1.12805902 5.98368575 4.27874404 8.03515625 7.59375 C12.98315177 22.43773656 3.46619496 41.5406765 -2.9296875 54.6484375 C-7.69607746 64.16517617 -13.18183213 72.39321781 -19.96484375 80.59375 C-20.68027344 81.53734375 -21.39570313 82.4809375 -22.1328125 83.453125 C-23.03966797 84.51273438 -23.03966797 84.51273438 -23.96484375 85.59375 C-24.62484375 85.59375 -25.28484375 85.59375 -25.96484375 85.59375 C-26.21234375 86.18414062 -26.45984375 86.77453125 -26.71484375 87.3828125 C-29.05417461 91.52050396 -33.1509376 93.8844813 -36.96484375 96.59375 C-37.78984375 97.19445312 -38.61484375 97.79515625 -39.46484375 98.4140625 C-43.62746656 101.2108247 -46.72846915 103.06683583 -51.83984375 102.65625 C-55.15814865 101.9749697 -57.79338608 101.33167489 -59.96484375 98.59375 C-60.65234375 95.90625 -60.65234375 95.90625 -59.96484375 92.59375 C-56.30373971 87.10209393 -51.51207987 83.07436874 -45.96484375 79.59375 C-45.30484375 79.59375 -44.64484375 79.59375 -43.96484375 79.59375 C-43.96484375 78.93375 -43.96484375 78.27375 -43.96484375 77.59375 C-42.52600254 76.3989228 -41.08437632 75.20724571 -39.62695312 74.03515625 C-22.08617474 58.8235294 -12.24849966 30.3580039 -10.6171875 7.921875 C-9.43135249 1.87198619 -6.179426 -0.2772079 0 0 Z " fill="#0D1111" transform="translate(273.96484375,251.40625)"/>
<path d="M0 0 C4.13316303 4.50457629 3.45674873 10.12982947 3.375 15.875 C3.36339844 16.90568604 3.35179687 17.93637207 3.33984375 18.99829102 C2.71333206 48.46046393 -13.21900994 69.86559139 -33.79296875 89.69140625 C-39.06239283 94.49663963 -42.54331412 96.44593829 -49.76953125 96.33984375 C-52 96 -52 96 -55.0625 93.9375 C-57.50495172 90.23442804 -57.7007844 88.36043626 -57 84 C-54.38316645 80.24203584 -51.42615606 77.59183432 -47.8125 74.8125 C-29.23115954 59.81399779 -20.75344808 41.01763121 -17.69433594 17.76391602 C-16.70284413 11.22752401 -14.64480798 6.76908378 -10 2 C-6.28500878 -0.47666082 -4.39092112 -0.54886514 0 0 Z " fill="#0D1111" transform="translate(244,241)"/>
<path d="M0 0 C0.33 0 0.66 0 1 0 C1.75641431 27.91088349 2.12880471 55.81725894 2.18167114 83.73757172 C2.18746118 86.04701408 2.19715589 88.35640883 2.20800781 90.66583252 C2.22484167 94.36307671 2.23088332 98.06019798 2.22919655 101.75747871 C2.23041572 103.76052878 2.24105422 105.76356644 2.25212097 107.7665863 C2.2229877 119.69977839 1.72044179 132.12437821 -2.75 143.3125 C-3.00950439 143.96710205 -3.26900879 144.6217041 -3.53637695 145.29614258 C-5.90372949 151.11158005 -8.77829843 156.61244864 -12 162 C-12.76763672 163.38638672 -12.76763672 163.38638672 -13.55078125 164.80078125 C-14.02902344 165.52652344 -14.50726563 166.25226563 -15 167 C-15.66 167 -16.32 167 -17 167 C-17.25523437 167.59296875 -17.51046875 168.1859375 -17.7734375 168.796875 C-19.11816498 171.21224538 -20.49214367 172.51211706 -22.625 174.25 C-23.57246094 175.03117187 -23.57246094 175.03117187 -24.5390625 175.828125 C-25.02117187 176.21484375 -25.50328125 176.6015625 -26 177 C-26 176.01 -26 175.02 -26 174 C-25.01 173.67 -24.02 173.34 -23 173 C-22.28848916 171.69004788 -21.62594499 170.35292834 -21 169 C-20.07575813 167.86714354 -19.11561225 166.7628019 -18.125 165.6875 C-15.19188215 162.34146751 -13.03194756 158.9448689 -11 155 C-10.66097656 154.360625 -10.32195312 153.72125 -9.97265625 153.0625 C-0.45283914 134.66949487 0.18922993 114.64058542 0.1875 94.3125 C0.18840637 93.61414032 0.18931274 92.91578064 0.19024658 92.19625854 C0.18994869 90.16849742 0.18093562 88.14099783 0.16796875 86.11328125 C0.16047607 84.93548096 0.1529834 83.75768066 0.14526367 82.54418945 C0.06164519 79.00592064 0.06164519 79.00592064 -0.50219727 75.55908203 C-1.41354404 68.73836229 -1.14330679 61.81021859 -1.1328125 54.94140625 C-1.13348688 53.38581833 -1.13445803 51.83023051 -1.13571167 50.27464294 C-1.13717926 47.03114814 -1.13506234 43.78768102 -1.13037109 40.54418945 C-1.1246409 36.37884888 -1.12797937 32.21357228 -1.13394356 28.04823399 C-1.13754618 24.84418754 -1.13641255 21.64015644 -1.13381577 18.43610954 C-1.13314739 16.89904714 -1.13397182 15.36198335 -1.13629532 13.82492256 C-1.13882053 11.6873615 -1.13498471 9.54990661 -1.12939453 7.41235352 C-1.12859894 6.19516129 -1.12780334 4.97796906 -1.12698364 3.72389221 C-1 1 -1 1 0 0 Z " fill="#012307" transform="translate(210,129)"/>
<path d="M0 0 C8.21042391 2.90704005 14.79638098 6.86281695 21.828125 11.96875 C20.838125 12.46375 20.838125 12.46375 19.828125 12.96875 C17.359375 11.67578125 17.359375 11.67578125 14.328125 9.78125 C8.97937057 6.56173594 3.71141129 4.03083207 -2.171875 1.96875 C-3.0582666 1.64495361 -3.9446582 1.32115723 -4.85791016 0.98754883 C-8.42630329 -0.10946786 -11.84794834 -0.66771252 -15.546875 -1.15625 C-16.79210937 -1.32382813 -18.03734375 -1.49140625 -19.3203125 -1.6640625 C-20.26132813 -1.78523437 -21.20234375 -1.90640625 -22.171875 -2.03125 C-22.17003141 -1.39294125 -22.16818783 -0.75463249 -22.16628838 -0.09698105 C-22.12199928 15.47936547 -22.08896512 31.0556899 -22.06825066 46.63208389 C-22.05796545 54.16490194 -22.0439582 61.6976778 -22.02099609 69.23046875 C-22.00097742 75.80082471 -21.98813857 82.3711501 -21.98369801 88.94153571 C-21.98110489 92.41616336 -21.97506833 95.89070358 -21.96041489 99.36530304 C-21.94413802 103.2568976 -21.94390071 107.14840888 -21.94482422 111.04003906 C-21.93763367 112.17508881 -21.93044312 113.31013855 -21.92303467 114.47958374 C-21.94626727 123.57783005 -22.53060655 132.53259383 -26.171875 140.96875 C-26.831875 140.96875 -27.491875 140.96875 -28.171875 140.96875 C-27.883125 139.81375 -27.594375 138.65875 -27.296875 137.46875 C-23.77729157 121.14967136 -23.90710319 104.99502322 -23.9765625 88.375 C-23.98029965 85.72985501 -23.98324191 83.08472092 -23.98513794 80.4395752 C-23.99130442 74.23165444 -24.00764831 68.02380582 -24.02783692 61.81591654 C-24.05034825 54.73709307 -24.06122728 47.65826579 -24.07122779 40.57941532 C-24.09202004 26.04249001 -24.12709984 11.50562102 -24.171875 -3.03125 C-16.82889786 -6.70273857 -7.15418286 -2.32599049 0 0 Z " fill="#3AE477" transform="translate(235.171875,132.03125)"/>
<path d="M0 0 C0.78503906 0.433125 1.57007813 0.86625 2.37890625 1.3125 C2.37890625 1.6425 2.37890625 1.9725 2.37890625 2.3125 C-1.82851225 1.96903727 -4.66645544 1.46902771 -8.24609375 -0.8125 C-11.36267032 -2.94635593 -11.36267032 -2.94635593 -14.24609375 -2.5 C-15.02984375 -2.231875 -15.81359375 -1.96375 -16.62109375 -1.6875 C-18.28776042 -1.35416667 -19.95442708 -1.02083333 -21.62109375 -0.6875 C-21.62109375 -0.0275 -21.62109375 0.6325 -21.62109375 1.3125 C-22.2555542 1.7448999 -22.89001465 2.1772998 -23.54370117 2.62280273 C-26.90978807 5.36069055 -26.73878628 8.46241035 -27.30322266 12.60595703 C-27.93587975 19.98306919 -27.86786879 27.35146965 -27.80859375 34.75 C-27.8016893 36.53556167 -27.79518662 38.32112494 -27.7890625 40.10668945 C-27.73052185 52.13598588 -27.44235608 64.15173379 -27.0501709 76.1741333 C-26.30049809 99.54411481 -26.53186569 122.93373557 -26.62109375 146.3125 C-29.28097077 143.65262298 -28.89283165 142.36579453 -28.93994141 138.64697266 C-28.96972328 136.84061844 -28.96972328 136.84061844 -29.00010681 134.99777222 C-29.01204359 133.65737121 -29.02371801 132.31696785 -29.03515625 130.9765625 C-29.05409393 129.57226532 -29.07381124 128.16797847 -29.09425354 126.76370239 C-29.14685077 122.94991698 -29.18632145 119.13610004 -29.2225914 115.3221283 C-29.24603045 112.94392305 -29.27276744 110.56577864 -29.3006897 108.18762207 C-29.43693946 96.56277837 -29.53783962 84.93783602 -29.62109375 73.3125 C-29.62714882 72.48323502 -29.63320389 71.65397003 -29.63944244 70.79957581 C-29.72018602 59.6377549 -29.77447663 48.47609445 -29.80187225 37.31401825 C-29.80859971 35.06050349 -29.81870262 32.80702572 -29.82965088 30.55352783 C-29.84920942 26.36376797 -29.85154644 22.17418073 -29.8515625 17.984375 C-29.85869766 16.7377005 -29.86583282 15.491026 -29.8731842 14.20657349 C-29.87015793 13.07202728 -29.86713165 11.93748108 -29.86401367 10.76855469 C-29.86543869 9.78135437 -29.86686371 8.79415405 -29.86833191 7.77703857 C-29.62109375 5.3125 -29.62109375 5.3125 -27.62109375 2.3125 C-26.96109375 2.3125 -26.30109375 2.3125 -25.62109375 2.3125 C-25.43546875 1.714375 -25.24984375 1.11625 -25.05859375 0.5 C-18.91501398 -8.84892574 -7.72685868 -4.09570914 0 0 Z " fill="#001B03" transform="translate(205.62109375,55.6875)"/>
<path d="M0 0 C1.05222854 3.15668562 1.1232215 5.36158411 1.12025452 8.67570496 C1.12162918 9.85781052 1.12300385 11.03991608 1.12442017 12.25784302 C1.12082489 13.55616058 1.11722961 14.85447815 1.11352539 16.19213867 C1.11324334 17.57187396 1.11340159 18.9516094 1.1139679 20.3313446 C1.11425519 24.07899443 1.10836937 27.82661235 1.10139394 31.57425475 C1.09514916 35.49003803 1.09455571 39.40582201 1.09336853 43.3216095 C1.09025854 50.73762021 1.08204961 58.1536162 1.07201904 65.56962043 C1.06084761 74.01209083 1.05534485 82.45456192 1.05032361 90.89703786 C1.03986673 108.26470067 1.02207262 125.63234822 1 143 C-5.93 139.535 -5.93 139.535 -13 136 C-13 135.67 -13 135.34 -13 135 C-8.15977839 135.47453153 -5.06797052 136.37935578 -1 139 C-1.00092179 138.29578226 -1.00184359 137.59156452 -1.00279331 136.86600685 C-1.02485521 119.74929995 -1.04141482 102.63259665 -1.05181217 85.51587868 C-1.05697359 77.23844518 -1.06401338 68.96102116 -1.07543945 60.68359375 C-1.08539097 53.47095972 -1.09185455 46.25833255 -1.09408849 39.04569185 C-1.0953948 35.22488644 -1.09847564 31.40410067 -1.10573006 27.58330154 C-1.11249764 23.98993139 -1.11461545 20.39658904 -1.11310768 16.80321312 C-1.11351566 14.84981813 -1.11890703 12.89642619 -1.12442017 10.94303894 C-1.1230455 9.78755051 -1.12167084 8.63206207 -1.12025452 7.44155884 C-1.12117631 6.43311731 -1.1220981 5.42467579 -1.12304783 4.38567543 C-1 2 -1 2 0 0 Z " fill="#3BCF6E" transform="translate(176,58)"/>
<path d="M0 0 C3.94930781 5.88729705 3.49806926 11.97530993 3.4375 18.875 C3.42847656 20.08647705 3.41945312 21.2979541 3.41015625 22.54614258 C3.08516076 39.43123795 -1.60001443 53.90002164 -11 68 C-11.66 68 -12.32 68 -13 68 C-14.07525194 70.65228812 -15.09456151 73.28368454 -16 76 C-17.59375 77.53515625 -17.59375 77.53515625 -19.5 79.0625 C-22.18106401 81.17721767 -22.18106401 81.17721767 -24 84 C-24.66 84 -25.32 84 -26 84 C-26 84.66 -26 85.32 -26 86 C-27.609375 87.55078125 -27.609375 87.55078125 -29.75 89.3125 C-32.22705964 91.40578984 -34.2126697 93.26583713 -36.25 95.8125 C-38.15233982 98.19042477 -39.19311214 98.91330557 -42 100 C-44.796875 100.1953125 -44.796875 100.1953125 -47.75 100.125 C-48.73484375 100.10695313 -49.7196875 100.08890625 -50.734375 100.0703125 C-51.48203125 100.04710937 -52.2296875 100.02390625 -53 100 C-53 99.34 -53 98.68 -53 98 C-51.87464844 97.94005859 -51.87464844 97.94005859 -50.7265625 97.87890625 C-41.57305721 96.94511037 -37.2176027 93.54484494 -31 87 C-30.40960938 86.4534375 -29.81921875 85.906875 -29.2109375 85.34375 C-13.06056528 70.34150851 -0.2244744 49.29854024 1.1887207 27.02563477 C1.2656256 24.03513281 1.27344598 21.05381662 1.25 18.0625 C1.25773437 17.04865234 1.26546875 16.03480469 1.2734375 14.99023438 C1.26957031 13.5274707 1.26957031 13.5274707 1.265625 12.03515625 C1.26336914 11.1625415 1.26111328 10.28992676 1.25878906 9.39086914 C0.98295322 6.84251029 0.28335314 5.19935122 -1 3 C-6.7974423 2.75571657 -6.7974423 2.75571657 -12 5 C-11 2 -11 2 -9.375 0.8125 C-6.19617272 -0.27499354 -3.33338467 -0.1282071 0 0 Z " fill="#32CC6A" transform="translate(245,239)"/>
<path d="M0 0 C3 1 3 1 4.2109375 3.01171875 C7.04732954 9.53161321 9.55861126 16.11703445 11.88671875 22.8359375 C12.57842997 24.8018536 13.3122018 26.75412124 14.109375 28.6796875 C15.27951252 31.72820368 15.56581544 34.774629 16 38 C16.495 38.495 16.495 38.495 17 39 C21.27647358 58.4993295 21.74619577 78.14634371 21 98 C20.95407715 99.29325195 20.9081543 100.58650391 20.86083984 101.91894531 C20.79719238 103.17545898 20.73354492 104.43197266 20.66796875 105.7265625 C20.58518677 107.42546631 20.58518677 107.42546631 20.50073242 109.15869141 C19.96535736 112.19657293 19.41490461 113.16527087 17 115 C17.10393066 114.01169189 17.10393066 114.01169189 17.20996094 113.00341797 C18.09382747 103.70709222 18.24303944 94.45522143 18.25 85.125 C18.25067474 84.30807678 18.25134949 83.49115356 18.25204468 82.6494751 C18.23493693 69.56924309 17.66943198 56.84614435 15 44 C14.83902832 43.21141602 14.67805664 42.42283203 14.51220703 41.61035156 C11.79033962 28.84555166 7.03553884 17.00812571 1.86035156 5.05859375 C1.16756121 3.40092965 0.56813808 1.70441423 0 0 Z " fill="#002505" transform="translate(352,105)"/>
<path d="M0 0 C0.33 0 0.66 0 1 0 C1.21937561 3.83907326 0.84124418 6.59369827 -1 10 C-1.66 10.309375 -2.32 10.61875 -3 10.9375 C-5.29284138 11.85428874 -5.29284138 11.85428874 -5.8125 14.625 C-7.27697892 18.78720324 -9.57766095 21.05986793 -12.63671875 24.16796875 C-13.08660156 24.77253906 -13.53648437 25.37710937 -14 26 C-13.505 27.485 -13.505 27.485 -13 29 C-14.38870806 31.77741612 -16.57302886 32.40929043 -19.2109375 33.84765625 C-21.73041749 35.47046541 -23.30524563 37.5595537 -25 40 C-24.34 40.33 -23.68 40.66 -23 41 C-23.99 41.53625 -24.98 42.0725 -26 42.625 C-31.30559244 45.66139812 -36.57848464 48.86772695 -40 54 C-41.485 54.495 -41.485 54.495 -43 55 C-44.42857119 56.40105576 -44.42857119 56.40105576 -45.6875 58.0625 C-46.8321875 59.5165625 -46.8321875 59.5165625 -48 61 C-49.32 60.67 -50.64 60.34 -52 60 C-49.71336873 57.99397361 -47.42114438 55.99508435 -45.125 54 C-44.47402344 53.42765625 -43.82304687 52.8553125 -43.15234375 52.265625 C-42.21455078 51.45351563 -42.21455078 51.45351563 -41.2578125 50.625 C-40.6817627 50.12226563 -40.10571289 49.61953125 -39.51220703 49.1015625 C-38 48 -38 48 -36 48 C-35.34 46.68 -34.68 45.36 -34 44 C-33.34 44 -32.68 44 -32 44 C-31.67 43.01 -31.34 42.02 -31 41 C-29.35570171 39.31126121 -27.68615782 37.64694485 -26 36 C-25.278125 35.071875 -24.55625 34.14375 -23.8125 33.1875 C-23.214375 32.465625 -22.61625 31.74375 -22 31 C-21.34 31 -20.68 31 -20 31 C-19.73316406 30.42507813 -19.46632813 29.85015625 -19.19140625 29.2578125 C-17.95935505 26.92297449 -16.55161725 24.96105816 -14.9375 22.875 C-12.76773805 20.06372737 -12.76773805 20.06372737 -11 17 C-10.34 17 -9.68 17 -9 17 C-8.74347656 16.30519531 -8.48695313 15.61039062 -8.22265625 14.89453125 C-6.8557894 11.65859407 -5.21062956 8.71921839 -3.4375 5.6875 C-2.81746094 4.61886719 -2.19742188 3.55023438 -1.55859375 2.44921875 C-1.04425781 1.64097656 -0.52992188 0.83273437 0 0 Z " fill="#07240D" transform="translate(348,279)"/>
<path d="M0 0 C4.46926822 1.36560973 6.23349835 3.31133113 9 7 C9.99 7.66 10.98 8.32 12 9 C12 9.66 12 10.32 12 11 C12.66 11 13.32 11 14 11 C24.9873888 24.67966287 31.76577162 42.34228384 30 60 C28.65452449 64.62934793 27.31930557 68.42536323 24 72 C20.79558533 73.04192624 18.23802106 72.85579846 15 72 C11.35080555 70.03582997 8.04910544 67.81357955 5 65 C5 64.34 5 63.68 5 63 C8.3712373 64.15886282 11.0758331 65.69374984 14 67.6875 C16.62400738 69.35777212 17.64558935 69.99212421 20.8125 70.0625 C23.47121448 68.7711244 24.50910077 67.53452869 26 65 C29.98170871 53.05487388 26.63893303 38.26414029 21.26953125 27.37109375 C16.74742045 18.76002453 11.04878674 10.8904071 3.29296875 4.9140625 C1 3 1 3 0 0 Z " fill="#34D66F" transform="translate(262,89)"/>
<path d="M0 0 C0.66 0 1.32 0 2 0 C1.88205919 1.75048992 1.75510056 3.5003718 1.625 5.25 C1.55539063 6.22453125 1.48578125 7.1990625 1.4140625 8.203125 C1.07108069 11.34820348 0.56431342 14.34904803 -0.01953125 17.453125 C-1.26791346 24.79534372 -1.34873469 32.06979686 -1.3125 39.5 C-1.31200653 40.19810791 -1.31151306 40.89621582 -1.31100464 41.61547852 C-1.28734047 52.586878 -0.45479355 63.19821722 1.63623047 73.98046875 C2.23488802 77.30402263 2.61097837 80.64610482 3 84 C-0.2666923 80.43633567 -1.15165659 76.6273277 -2 72 C-2.18691406 71.02546875 -2.37382812 70.0509375 -2.56640625 69.046875 C-6.00780768 47.1951792 -6.21921266 21.32301484 0 0 Z " fill="#012608" transform="translate(19,152)"/>
<path d="M0 0 C4.27558558 4.55997086 3.36768122 10.53506951 3.25 16.375 C3.24484375 17.39078125 3.2396875 18.4065625 3.234375 19.453125 C3.17955998 24.7290708 2.90792093 29.80142049 2 35 C1.67 35 1.34 35 1 35 C1.01047363 34.21351074 1.02094727 33.42702148 1.03173828 32.61669922 C1.07343991 29.03616561 1.09937139 25.45568324 1.125 21.875 C1.14175781 20.6375 1.15851563 19.4 1.17578125 18.125 C1.18222656 16.92617188 1.18867188 15.72734375 1.1953125 14.4921875 C1.20578613 13.39245605 1.21625977 12.29272461 1.22705078 11.15966797 C0.98673701 7.81543058 0.18909337 5.12291305 -1 2 C-5.62610406 3.10288811 -5.62610406 3.10288811 -8.6875 6.5625 C-9.3371875 7.7690625 -9.3371875 7.7690625 -10 9 C-10.99 9.33 -11.98 9.66 -13 10 C-13.02715383 11.74991334 -13.04646551 13.49994945 -13.0625 15.25 C-13.07410156 16.22453125 -13.08570313 17.1990625 -13.09765625 18.203125 C-13.01195577 20.65758678 -12.70706066 22.66168914 -12 25 C-12.66 25.33 -13.32 25.66 -14 26 C-14.33 25.34 -14.66 24.68 -15 24 C-15.66 25.32 -16.32 26.64 -17 28 C-18.71873252 21.23797934 -17.93982158 13.62469518 -14.6328125 7.4453125 C-10.52675483 1.8684282 -7.29052259 -0.91131532 0 0 Z " fill="#042C0B" transform="translate(244,241)"/>
<path d="M0 0 C5.17712037 4.54959062 8.45960993 10.13622894 12 16 C12.556875 16.91458984 12.556875 16.91458984 13.125 17.84765625 C14.12583005 19.54489721 15.0690409 21.26340321 16 23 C16.43828125 23.80050781 16.8765625 24.60101563 17.328125 25.42578125 C24.56736428 39.19938651 29.58860622 53.63597676 32 69 C31.01 69.495 31.01 69.495 30 70 C29.80889648 69.25951416 29.61779297 68.51902832 29.42089844 67.75610352 C28.53858221 64.35610694 27.64438578 60.95934068 26.75 57.5625 C26.44964844 56.39783203 26.14929688 55.23316406 25.83984375 54.03320312 C23.2862516 44.38931788 19.64174129 36.03169078 14.953125 27.26171875 C14 25 14 25 14 21 C13.34 21 12.68 21 12 21 C10.37890625 18.76953125 10.37890625 18.76953125 8.5625 15.8125 C7.96566406 14.84957031 7.36882812 13.88664062 6.75390625 12.89453125 C5.88572266 11.46173828 5.88572266 11.46173828 5 10 C4.45601563 9.113125 3.91203125 8.22625 3.3515625 7.3125 C1.96531396 4.94065279 0.95536112 2.5721261 0 0 Z " fill="#35C969" transform="translate(336,82)"/>
<path d="M0 0 C8.21042391 2.90704005 14.79638098 6.86281695 21.828125 11.96875 C20.838125 12.46375 20.838125 12.46375 19.828125 12.96875 C17.359375 11.67578125 17.359375 11.67578125 14.328125 9.78125 C2.14999755 2.45101022 -8.81506775 -0.11700903 -23.171875 -2.03125 C-23.171875 13.80875 -23.171875 29.64875 -23.171875 45.96875 C-23.501875 45.96875 -23.831875 45.96875 -24.171875 45.96875 C-24.171875 29.79875 -24.171875 13.62875 -24.171875 -3.03125 C-16.82889786 -6.70273857 -7.15418286 -2.32599049 0 0 Z " fill="#39C269" transform="translate(235.171875,132.03125)"/>
<path d="M0 0 C0.66 0.33 1.32 0.66 2 1 C0.88200014 2.33920838 -0.24461897 3.67122556 -1.375 5 C-2.31472656 6.11375 -2.31472656 6.11375 -3.2734375 7.25 C-3.84320313 7.8275 -4.41296875 8.405 -5 9 C-5.66 9 -6.32 9 -7 9 C-7 9.66 -7 10.32 -7 11 C-9.65281724 13.07194174 -12.4250408 14.93220383 -15.203125 16.83203125 C-18.01740159 19.01348867 -19.99598296 21.06453842 -22 24 C-22.50095023 27.12693772 -22.50095023 27.12693772 -22 30 C-21.34 30.66 -20.68 31.32 -20 32 C-21.32 32 -22.64 32 -24 32 C-25.73565776 28.52868448 -24.89049002 24.68728829 -24 21 C-21.875 18.6875 -21.875 18.6875 -20 17 C-20.22757731 14.83700789 -20.22757731 14.83700789 -21 13 C-20.67 12.67 -20.34 12.34 -20 12 C-19.7525 11.34 -19.505 10.68 -19.25 10 C-18 8 -18 8 -15.375 7.25 C-14.199375 7.12625 -14.199375 7.12625 -13 7 C-12.67 8.32 -12.34 9.64 -12 11 C-7.10867301 7.73911534 -3.57729872 4.66132863 0 0 Z " fill="#1FE362" transform="translate(237,320)"/>
<path d="M0 0 C0.62890625 1.84375 0.62890625 1.84375 1 4 C-1.45820073 6.97963725 -3.9453897 8.96466392 -7.1875 11.0625 C-10.07152549 12.71551782 -10.07152549 12.71551782 -11.0625 15.125 C-12 17 -12 17 -14.625 18.25 C-15.40875 18.4975 -16.1925 18.745 -17 19 C-17.20625 20.258125 -17.4125 21.51625 -17.625 22.8125 C-17.74101562 23.52019531 -17.85703125 24.22789062 -17.9765625 24.95703125 C-18.19577848 27.31755824 -18.19577848 27.31755824 -16 30 C-13.3443272 30.58348752 -13.3443272 30.58348752 -10.375 30.6875 C-9.37210938 30.75324219 -8.36921875 30.81898438 -7.3359375 30.88671875 C-6.56507813 30.92410156 -5.79421875 30.96148437 -5 31 C-4.67 30.01 -4.34 29.02 -4 28 C-2.125 26.25 -2.125 26.25 0 25 C0.99 25.33 1.98 25.66 3 26 C1.90081184 26.98475214 0.7954398 27.96260473 -0.3125 28.9375 C-0.92738281 29.48277344 -1.54226562 30.02804687 -2.17578125 30.58984375 C-5.72384241 33.3325634 -9.4530964 33.40321718 -13.76953125 33.33984375 C-16 33 -16 33 -19.0625 30.9375 C-21.50495172 27.23442804 -21.7007844 25.36043626 -21 21 C-18.34133535 17.17396765 -15.29018632 14.46885605 -11.625 11.625 C-7.164009 8.05979033 -3.52646709 4.4795663 0 0 Z " fill="#012C0A" transform="translate(208,304)"/>
<path d="M0 0 C0 3.75722307 -1.02061227 4.58821036 -3.375 7.4375 C-5.64509076 10.19804247 -7.52755437 12.7353352 -9 16 C-9.66 16 -10.32 16 -11 16 C-11 17.32 -11 18.64 -11 20 C-11.61875 20.04125 -12.2375 20.0825 -12.875 20.125 C-13.57625 20.41375 -14.2775 20.7025 -15 21 C-16.12949221 23.80376352 -16.12949221 23.80376352 -17 27 C-18.5 29.875 -18.5 29.875 -20 32 C-20.66 32 -21.32 32 -22 32 C-22.24492188 32.80695313 -22.48984375 33.61390625 -22.7421875 34.4453125 C-24.26131237 38.73849149 -26.15727098 42.77266742 -28.125 46.875 C-28.49753906 47.65875 -28.87007812 48.4425 -29.25390625 49.25 C-30.16618997 51.16813499 -31.08266984 53.08427329 -32 55 C-33.11176295 51.6277755 -33.02942021 51.07256985 -31.59375 47.53125 C-30.90959935 46.18043927 -30.21075597 44.83700325 -29.5 43.5 C-28.9436084 42.42878906 -28.9436084 42.42878906 -28.37597656 41.3359375 C-27.2654978 39.21567352 -26.13558956 37.10689853 -25 35 C-24.17242187 33.43765625 -24.17242187 33.43765625 -23.328125 31.84375 C-16.93912839 20.33090462 -8.65485263 9.88770489 0 0 Z " fill="#33CF6B" transform="translate(64,71)"/>
<path d="M0 0 C1.15359001 3.68228358 0.52523356 5.96877797 -0.48876953 9.67138672 C-4.3058791 27.0580109 -0.08800511 44.01508517 8.9609375 58.92578125 C9.30382812 59.61027344 9.64671875 60.29476562 10 61 C9.67 61.66 9.34 62.32 9 63 C0.150817 50.25717648 -3.35238715 40.64351205 -3.20581055 24.96362305 C-3.18750914 22.93851123 -3.18530178 20.91385803 -3.18554688 18.88867188 C-3.13119738 6.75665764 -3.13119738 6.75665764 -2 1 C-1.34 0.67 -0.68 0.34 0 0 Z " fill="#35CC6C" transform="translate(71,234)"/>
<path d="M0 0 C-4.58798777 1.53271273 -6.77944742 0.02911182 -11 -2 C-11 -2.66 -11 -3.32 -11 -4 C-12.299375 -4.144375 -13.59875 -4.28875 -14.9375 -4.4375 C-18.875 -4.875 -18.875 -4.875 -20 -6 C-22.29151417 -6.08790975 -24.58572524 -6.10694038 -26.87890625 -6.09765625 C-27.5655687 -6.0962413 -28.25223114 -6.09482635 -28.95970154 -6.09336853 C-31.16067801 -6.08775479 -33.36155409 -6.07520007 -35.5625 -6.0625 C-37.05143083 -6.05748676 -38.54036324 -6.05292355 -40.02929688 -6.04882812 C-43.68623075 -6.03778093 -47.34310558 -6.02050713 -51 -6 C-36.90922593 -15.39384938 -13.08128194 -7.28309211 0 0 Z " fill="#022B0B" transform="translate(171,197)"/>
<path d="M0 0 C0.33 0.66 0.66 1.32 1 2 C0.56300781 2.65484375 0.12601563 3.3096875 -0.32421875 3.984375 C-2.68734638 8.23690304 -3.08911617 12.48040489 -3.8125 17.25 C-6.06425725 30.63993339 -9.31345055 46.76056531 -19 57 C-20.32 57 -21.64 57 -23 57 C-22 55 -22 55 -19 53 C-17.56405804 50.4957867 -16.25849816 48.02782987 -15 45.4375 C-14.65710938 44.75880859 -14.31421875 44.08011719 -13.9609375 43.38085938 C-9.24050926 33.82289303 -7.20065264 24.40188553 -5.62695312 13.90820312 C-4.69717706 8.27897315 -3.59758465 4.46881601 0 0 Z " fill="#38D571" transform="translate(231,244)"/>
<path d="M0 0 C7.97622779 -0.18694284 15.26799473 -0.23038614 23 2 C23.99 1.67 24.98 1.34 26 1 C28.00875442 1.27571139 30.01178687 1.60235737 32 2 C33 5 33 5 33 7 C33.99 7.66 34.98 8.32 36 9 C36 9.66 36 10.32 36 11 C35.02546875 10.59974609 35.02546875 10.59974609 34.03125 10.19140625 C30.21523686 8.69155572 26.36373496 7.30882562 22.5 5.9375 C21.75363281 5.66873047 21.00726563 5.39996094 20.23828125 5.12304688 C14.63033318 3.13296973 9.68637693 1.85751497 3.6875 1.9375 C2.36298828 1.95103516 2.36298828 1.95103516 1.01171875 1.96484375 C0.01591797 1.98224609 0.01591797 1.98224609 -1 2 C-0.67 1.34 -0.34 0.68 0 0 Z " fill="#051E0A" transform="translate(212,127)"/>
<path d="M0 0 C0.33 0 0.66 0 1 0 C0.51807649 4.8995557 -0.10208209 9.67066456 -1.0625 14.5 C-3.23837038 26.29550783 -1.86709487 37.82681362 3.1953125 48.74609375 C4.10351374 51.28993897 4.14186025 53.31884126 4 56 C-5.07529301 45.06174362 -5.08094761 30.1387309 -4.27001953 16.67871094 C-3.68250115 10.85027359 -2.11716118 5.45358037 0 0 Z " fill="#012607" transform="translate(73,232)"/>
<path d="M0 0 C0.33 0 0.66 0 1 0 C2.03346135 10.74799805 -3.69083604 19.99830332 -9 29 C-9.556875 30.010625 -10.11375 31.02125 -10.6875 32.0625 C-11.120625 32.701875 -11.55375 33.34125 -12 34 C-12.66 34 -13.32 34 -14 34 C-14.25523437 34.59296875 -14.51046875 35.1859375 -14.7734375 35.796875 C-16.11816498 38.21224538 -17.49214367 39.51211706 -19.625 41.25 C-20.57246094 42.03117187 -20.57246094 42.03117187 -21.5390625 42.828125 C-22.02117187 43.21484375 -22.50328125 43.6015625 -23 44 C-23 43.01 -23 42.02 -23 41 C-21.515 40.505 -21.515 40.505 -20 40 C-19.28848916 38.69004788 -18.62594499 37.35292834 -18 36 C-17.07575813 34.86714354 -16.11561225 33.7628019 -15.125 32.6875 C-12.19188215 29.34146751 -10.03194756 25.9448689 -8 22 C-7.66097656 21.360625 -7.32195312 20.72125 -6.97265625 20.0625 C-3.62891381 13.60213724 -0.90888755 7.27110039 0 0 Z " fill="#002207" transform="translate(207,262)"/>
<path d="M0 0 C3.95010731 5.88848888 3.49528993 11.97431386 3.4375 18.875 C3.43282715 20.07705078 3.4281543 21.27910156 3.42333984 22.51757812 C3.25790207 32.5191657 2.7115749 43.43263766 -3 52 C-3.36357211 47.2735626 -2.41044077 43.78680839 -0.75390625 39.44140625 C1.37269776 32.55473522 1.18299331 25.44658629 1.1875 18.3125 C1.19974609 17.28060547 1.21199219 16.24871094 1.22460938 15.18554688 C1.22654297 14.19232422 1.22847656 13.19910156 1.23046875 12.17578125 C1.23663208 10.82867065 1.23663208 10.82867065 1.24291992 9.4543457 C0.98626756 6.8612541 0.31124932 5.23045556 -1 3 C-6.7974423 2.75571657 -6.7974423 2.75571657 -12 5 C-11 2 -11 2 -9.375 0.8125 C-6.19617272 -0.27499354 -3.33338467 -0.1282071 0 0 Z " fill="#3AD672" transform="translate(245,239)"/>
<path d="M0 0 C3.4375 0.8125 3.4375 0.8125 7 2 C7.33 2.99 7.66 3.98 8 5 C9.33038449 5.3449145 10.66457061 5.67516582 12 6 C15.25 7.9375 15.25 7.9375 18 10 C18 10.66 18 11.32 18 12 C21.43112739 14.11146301 24.03105481 14.08444564 28 14 C28.99 14.33 29.98 14.66 31 15 C31.99 14.67 32.98 14.34 34 14 C34.73323796 11.98491642 34.73323796 11.98491642 35 10 C35.495 11.485 35.495 11.485 36 13 C34.1790882 15.94147291 32.96061451 17.67874012 29.62890625 18.79296875 C26.39859049 19.04736212 25.2673932 18.42669476 22.5625 16.6875 C21.27859375 15.86378906 21.27859375 15.86378906 19.96875 15.0234375 C3.37446789 3.71312417 3.37446789 3.71312417 0 0 Z " fill="#022E0C" transform="translate(253,141)"/>
<path d="M0 0 C0.66 0.66 1.32 1.32 2 2 C-12.93334851 11.14910923 -29.38741196 19.88828664 -47 22 C-46 20 -46 20 -42.82421875 18.88671875 C-41.44686709 18.48165507 -40.06783302 18.08228467 -38.6875 17.6875 C-25.64732466 13.77284341 -10.71525805 8.66675284 0 0 Z " fill="#37D971" transform="translate(283,345)"/>
<path d="M0 0 C3.25075277 0.34829494 3.99611166 0.99544508 6.1875 3.5625 C6.785625 4.366875 7.38375 5.17125 8 6 C8.33 6 8.66 6 9 6 C9.29192795 17.40140836 8.27643452 26.48042845 4 37 C3.608125 37.99 3.21625 38.98 2.8125 40 C2.544375 40.66 2.27625 41.32 2 42 C1.00959531 38.91482274 1.01039266 37.09704953 1.99609375 34.0234375 C2.22562744 33.27489502 2.45516113 32.52635254 2.69165039 31.75512695 C2.93778076 30.96968506 3.18391113 30.18424316 3.4375 29.375 C6.79473149 18.71598209 6.79473149 18.71598209 5.16015625 7.953125 C4.03144091 5.81272613 4.03144091 5.81272613 2 3 C1.34 2.01 0.68 1.02 0 0 Z " fill="#38D870" transform="translate(276,252)"/>
<path d="M0 0 C3.87747397 1.41962162 7.19483968 3.24146129 10.6875 5.4375 C11.82254759 6.1477256 12.95798837 6.85732307 14.09375 7.56640625 C14.70992187 7.95199707 15.32609375 8.33758789 15.9609375 8.73486328 C18.22510368 10.13966562 20.50174662 11.52257269 22.78125 12.90234375 C23.59376221 13.39484619 24.40627441 13.88734863 25.2434082 14.39477539 C26.85541445 15.37106086 28.46851085 16.34554889 30.08276367 17.31811523 C30.82244385 17.76743408 31.56212402 18.21675293 32.32421875 18.6796875 C32.98510498 19.07913574 33.64599121 19.47858398 34.3269043 19.89013672 C36 21 36 21 38 23 C36.35 23 34.7 23 33 23 C33 22.34 33 21.68 33 21 C32.4225 20.896875 31.845 20.79375 31.25 20.6875 C29 20 29 20 27.0625 18.5 C25.08768894 16.82287533 25.08768894 16.82287533 22.5625 16.625 C20 16 20 16 17.79296875 13.71875 C14.17975319 10.20154996 10.2499642 8.18570997 5.8203125 5.86328125 C1.10091991 3.30275974 1.10091991 3.30275974 0 0 Z " fill="#02280A" transform="translate(216,63)"/>
<path d="M0 0 C5.41674801 3.92283978 10.49399302 8.0535392 15.375 12.625 C16.01767822 13.2245752 16.66035645 13.82415039 17.32250977 14.44189453 C23.07310362 19.8987463 28.13252125 25.74672142 33 32 C32.01 32 31.02 32 30 32 C28.61096733 30.37946188 27.28667172 28.70294787 26 27 C23.77262878 24.71830265 21.52107713 22.48514077 19.1875 20.3125 C18 19 18 19 18 17 C17.34 17 16.68 17 16 17 C16 16.34 16 15.68 16 15 C15.20335937 14.67515625 15.20335937 14.67515625 14.390625 14.34375 C11.11330715 12.50159748 8.49197449 10.03862231 5.75 7.5 C5.19570313 7.00113281 4.64140625 6.50226562 4.0703125 5.98828125 C2.6714992 4.7031646 1.33055746 3.35566232 0 2 C0 1.34 0 0.68 0 0 Z " fill="#39D06F" transform="translate(303,48)"/>
<path d="M0 0 C0 0.33 0 0.66 0 1 C-1.19544434 1.03758423 -1.19544434 1.03758423 -2.41503906 1.07592773 C-6.02685222 1.19198789 -9.63841102 1.31466931 -13.25 1.4375 C-15.13138672 1.49647461 -15.13138672 1.49647461 -17.05078125 1.55664062 C-18.25605469 1.59853516 -19.46132812 1.64042969 -20.703125 1.68359375 C-21.81333008 1.72025146 -22.92353516 1.75690918 -24.06738281 1.79467773 C-26.54712754 1.9682929 -28.62009008 2.34750083 -31 3 C-34.59276039 3.30184218 -38.18604192 3.50725955 -41.78515625 3.71875 C-45.01478796 3.87584879 -45.01478796 3.87584879 -48 5 C-49.56118428 5.06740865 -51.1250252 5.08514456 -52.6875 5.0625 C-53.89986328 5.04896484 -53.89986328 5.04896484 -55.13671875 5.03515625 C-56.05904297 5.01775391 -56.05904297 5.01775391 -57 5 C-42.3293805 -4.07054432 -16.67149593 -0.30476626 0 0 Z " fill="#34D56E" transform="translate(211,12)"/>
<path d="M0 0 C0.495 1.485 0.495 1.485 1 3 C-3.33277565 8.97220427 -8.84763923 13.92313443 -15 18 C-15.99 18 -16.98 18 -18 18 C-18 18.66 -18 19.32 -18 20 C-23.74527607 22.29811043 -29.03577817 22.98807394 -35 21 C-34.67 20.34 -34.34 19.68 -34 19 C-33.44602539 19.12511963 -32.89205078 19.25023926 -32.32128906 19.37915039 C-25.67421143 20.54963854 -22.21011538 19.19926554 -16.75 15.4375 C-16.069375 15.00630859 -15.38875 14.57511719 -14.6875 14.13085938 C-10.27661538 11.23728487 -7.21034442 8.17402828 -4 4 C-2.68456137 2.64900897 -1.35824882 1.30794331 0 0 Z " fill="#30CA69" transform="translate(252,333)"/>
<path d="M0 0 C0.99 0.33 1.98 0.66 3 1 C2.154375 1.66 1.30875 2.32 0.4375 3 C-6.67502809 8.9738635 -12.17314466 16.646806 -17.91259766 23.89599609 C-18.41194824 24.52586426 -18.91129883 25.15573242 -19.42578125 25.8046875 C-19.87348877 26.37171387 -20.32119629 26.93874023 -20.7824707 27.52294922 C-22 29 -22 29 -24 31 C-23.48547417 26.52201739 -21.89537315 24.21556879 -19 20.8125 C-18.19046875 19.85730469 -17.3809375 18.90210937 -16.546875 17.91796875 C-5.84320267 5.65471226 -5.84320267 5.65471226 0 0 Z " fill="#012C0B" transform="translate(73,59)"/>
<path d="M0 0 C1 2 1 2 0.0390625 5.23046875 C-0.42502567 6.55205318 -0.89672871 7.87098194 -1.375 9.1875 C-3.17244701 14.15023143 -4.41360834 18.74293056 -5 24 C-5.66 24 -6.32 24 -7 24 C-6.938125 24.94875 -6.87625 25.8975 -6.8125 26.875 C-6.78189459 31.84327831 -8.42424457 36.3383902 -10 41 C-10.97538416 37.89722389 -10.9759983 35.76078832 -10.328125 32.5859375 C-10.15990234 31.74699951 -9.99167969 30.90806152 -9.81835938 30.04370117 C-9.53702148 28.72269409 -9.53702148 28.72269409 -9.25 27.375 C-9.06244141 26.47434814 -8.87488281 25.57369629 -8.68164062 24.64575195 C-6.79186809 15.74108572 -4.8916665 7.75919514 0 0 Z " fill="#33D56D" transform="translate(30,127)"/>
<path d="M0 0 C3.20547958 1.43024761 5.5354446 3.20433073 8.125 5.5625 C10.86038045 8.07679216 10.86038045 8.07679216 14 10 C14 10.66 14 11.32 14 12 C14.763125 12.268125 15.52625 12.53625 16.3125 12.8125 C19 14 19 14 20.25 15.28125 C22.79743259 17.78319272 25.7440255 19.68797832 28.6875 21.6875 C29.29400391 22.10322266 29.90050781 22.51894531 30.52539062 22.94726562 C32.01497948 23.96769264 33.50722877 24.98423413 35 26 C34.01 26.33 33.02 26.66 32 27 C20.14434721 20.90280714 9.03382264 10.66408933 0 1 C0 0.67 0 0.34 0 0 Z " fill="#31CC6A" transform="translate(70,319)"/>
<path d="M0 0 C1.23556641 0.01740234 1.23556641 0.01740234 2.49609375 0.03515625 C3.32238281 0.04417969 4.14867187 0.05320312 5 0.0625 C5.63808594 0.07410156 6.27617187 0.08570313 6.93359375 0.09765625 C4.26896424 1.49979804 1.69147799 2.56701631 -1.19140625 3.4296875 C-1.97515625 3.66864746 -2.75890625 3.90760742 -3.56640625 4.15380859 C-4.39140625 4.40340332 -5.21640625 4.65299805 -6.06640625 4.91015625 C-12.84802675 6.99452246 -19.34599893 9.29213135 -25.81640625 12.21484375 C-28.06640625 13.09765625 -28.06640625 13.09765625 -31.06640625 13.09765625 C-24.73571925 5.91270787 -14.11586239 3.91341702 -5.11328125 1.67578125 C-2.78173754 1.01725364 -2.42659151 0.11467824 0 0 Z " fill="#012809" transform="translate(151.06640625,14.90234375)"/>
<path d="M0 0 C0.78503906 0.433125 1.57007813 0.86625 2.37890625 1.3125 C2.37890625 1.6425 2.37890625 1.9725 2.37890625 2.3125 C-1.82851225 1.96903727 -4.66645544 1.46902771 -8.24609375 -0.8125 C-11.36267032 -2.94635593 -11.36267032 -2.94635593 -14.24609375 -2.5 C-15.02984375 -2.231875 -15.81359375 -1.96375 -16.62109375 -1.6875 C-18.28776042 -1.35416667 -19.95442708 -1.02083333 -21.62109375 -0.6875 C-21.62109375 -0.0275 -21.62109375 0.6325 -21.62109375 1.3125 C-25.08263221 4.3125 -25.08263221 4.3125 -27.62109375 4.3125 C-27.95109375 7.2825 -28.28109375 10.2525 -28.62109375 13.3125 C-28.95109375 13.3125 -29.28109375 13.3125 -29.62109375 13.3125 C-29.87109375 5.6875 -29.87109375 5.6875 -27.62109375 2.3125 C-26.96109375 2.3125 -26.30109375 2.3125 -25.62109375 2.3125 C-25.43546875 1.714375 -25.24984375 1.11625 -25.05859375 0.5 C-18.91501398 -8.84892574 -7.72685868 -4.09570914 0 0 Z " fill="#03330E" transform="translate(205.62109375,55.6875)"/>
<path d="M0 0 C0 0.33 0 0.66 0 1 C-2.64 1.66 -5.28 2.32 -8 3 C-8.94752937 7.66475999 -9.89119651 12.32384079 -10.6953125 17.015625 C-10.81801514 17.71429688 -10.94071777 18.41296875 -11.06713867 19.1328125 C-11.30926234 20.51692356 -11.54411313 21.90233176 -11.77075195 23.2890625 C-12.5414974 27.63746328 -13.85273226 31.14807682 -16 35 C-17.34723776 30.95828672 -16.16818926 27.92262068 -15.125 23.9375 C-13.88312691 19.02192541 -12.79212568 14.33144934 -12.5 9.25 C-12.24947661 6.12645306 -11.89405238 4.78810475 -10.4375 1.875 C-6.86260388 -0.87492009 -4.43193146 -0.36932762 0 0 Z " fill="#32D06A" transform="translate(274,251)"/>
<path d="M0 0 C0.66 0 1.32 0 2 0 C8.72229784 12.05377543 9.43133348 23.51683502 9 37 C8.67 37 8.34 37 8 37 C7.93941406 36.15695313 7.87882812 35.31390625 7.81640625 34.4453125 C7.73261719 33.34960938 7.64882813 32.25390625 7.5625 31.125 C7.48128906 30.03445312 7.40007812 28.94390625 7.31640625 27.8203125 C7.16998297 25.05271029 7.16998297 25.05271029 6 23 C5.93049459 21.45976004 5.91547643 19.91665012 5.9375 18.375 C5.94652344 17.55773437 5.95554687 16.74046875 5.96484375 15.8984375 C5.97644531 15.27195313 5.98804688 14.64546875 6 14 C5.01 13.67 4.02 13.34 3 13 C2.3046875 11.07421875 2.3046875 11.07421875 1.875 8.6875 C1.72804688 7.90761719 1.58109375 7.12773438 1.4296875 6.32421875 C1.28789062 5.55722656 1.14609375 4.79023437 1 4 C0.6768501 2.66416205 0.34692071 1.32986274 0 0 Z " fill="#042409" transform="translate(281,114)"/>
<path d="M0 0 C1.60694121 2.9540366 2.52118086 5.73762905 3.3125 9 C5.29953964 16.53461223 8.25515977 23.69577329 11.8125 30.625 C13 33 13 33 13 35 C10 34 10 34 8.90234375 32.14453125 C8.58394531 31.37496094 8.26554687 30.60539062 7.9375 29.8125 C7.59847656 28.99910156 7.25945313 28.18570312 6.91015625 27.34765625 C5.84227328 24.59315984 4.89567614 21.81498214 4 19 C3.62875 18.175 3.2575 17.35 2.875 16.5 C1.84330019 13.55228626 1.85577805 11.10077192 2 8 C1.01 8 0.02 8 -1 8 C-0.67 5.36 -0.34 2.72 0 0 Z " fill="#043E11" transform="translate(22,237)"/>
<path d="M0 0 C5.75 1.875 5.75 1.875 8 3 C8 3.99 8 4.98 8 6 C8.66 6 9.32 6 10 6 C10 6.66 10 7.32 10 8 C10.59296875 8.2578125 11.1859375 8.515625 11.796875 8.78125 C14.17660965 10.09769895 15.50978792 11.42580782 17.25 13.5 C17.77078125 14.1084375 18.2915625 14.716875 18.828125 15.34375 C20 17 20 17 20 19 C20.99 19.33 21.98 19.66 23 20 C23.66 20.99 24.32 21.98 25 23 C24.67 23.99 24.34 24.98 24 26 C23.35675781 25.20078125 22.71351563 24.4015625 22.05078125 23.578125 C16.00126892 16.18591327 9.59306024 9.61213128 2.45703125 3.265625 C1.64621094 2.51796875 0.83539063 1.7703125 0 1 C0 0.67 0 0.34 0 0 Z " fill="#02290A" transform="translate(310,53)"/>
<path d="M0 0 C4.62990923 1.04828134 8.99415214 2.32279264 13.4375 4 C18.25249499 5.8022607 22.95860912 7.00825097 28 8 C28 8.33 28 8.66 28 9 C22.43140206 9.20624437 17.61967088 8.64177338 12.19921875 7.33984375 C9.83099023 6.80222649 9.83099023 6.80222649 7 8 C6.67 7.01 6.34 6.02 6 5 C2.99992729 3.29144978 2.99992729 3.29144978 0 2 C0 1.34 0 0.68 0 0 Z " fill="#043210" transform="translate(128,359)"/>
<path d="M0 0 C0.66 0 1.32 0 2 0 C1.49731291 5.86152119 -0.94907132 10.28991784 -3.6875 15.375 C-4.32075195 16.59316406 -4.32075195 16.59316406 -4.96679688 17.8359375 C-7.86044427 23.28280319 -11.15568174 28.17938664 -15 33 C-15.33 32.01 -15.66 31.02 -16 30 C-14.6859849 28.31806068 -13.34592097 26.65651812 -12 25 C-8.16140498 18.57163287 -4.89606588 11.89945108 -2 5 C-1.34 5 -0.68 5 0 5 C0 3.35 0 1.7 0 0 Z " fill="#37D972" transform="translate(255,287)"/>
<path d="M0 0 C3.57150242 1.19050081 3.97798926 2.0845082 5.9375 5.1875 C6.46085937 6.00089844 6.98421875 6.81429688 7.5234375 7.65234375 C8.01070312 8.42707031 8.49796875 9.20179688 9 10 C11.67944995 14.22216355 14.42713481 17.5102247 18 21 C20.36674831 23.63793822 22.68757816 26.31439192 25 29 C22 29 22 29 20.39550781 27.75219727 C16.16241899 23.37926752 12.36411405 18.83238901 8.75 13.9375 C8.234375 13.25623047 7.71875 12.57496094 7.1875 11.87304688 C4.3506985 8.06749228 1.97788289 4.34185936 0 0 Z " fill="#38D870" transform="translate(44,287)"/>
<path d="M0 0 C3.76800431 3.6126923 6.98882399 7.39531811 10.125 11.5625 C10.55425781 12.12646484 10.98351563 12.69042969 11.42578125 13.27148438 C13.63021913 16.17116805 15.81793712 19.0834519 18 22 C14.84859577 21.65930765 13.39218439 21.41923159 11.1875 19.0625 C10 17 10 17 10 15 C9.34 15 8.68 15 8 15 C6.7109375 13.57421875 6.7109375 13.57421875 5.375 11.6875 C4.92898437 11.07261719 4.48296875 10.45773437 4.0234375 9.82421875 C3 8 3 8 3 5 C2.01 4.67 1.02 4.34 0 4 C0 2.68 0 1.36 0 0 Z " fill="#032E0D" transform="translate(47,293)"/>
<path d="M0 0 C0.65226562 0.13277344 1.30453125 0.26554687 1.9765625 0.40234375 C2.85054688 0.57894531 3.72453125 0.75554687 4.625 0.9375 C5.48351562 1.11152344 6.34203125 1.28554688 7.2265625 1.46484375 C12.9627978 2.57169479 18.54970639 3.24121346 24.375 3.5625 C25.11105469 3.60568359 25.84710938 3.64886719 26.60546875 3.69335938 C28.40348068 3.79843799 30.20171958 3.89962093 32 4 C31.67 4.66 31.34 5.32 31 6 C9.21668533 6.63241881 9.21668533 6.63241881 0 1 C0 0.67 0 0.34 0 0 Z " fill="#30D26B" transform="translate(114,321)"/>
<path d="M0 0 C8.40635512 3.66430864 16.14300812 9.95766453 22 17 C22.33 17.99 22.66 18.98 23 20 C22.34 20.33 21.68 20.66 21 21 C20.401875 20.030625 19.80375 19.06125 19.1875 18.0625 C17.28872491 14.76947958 17.28872491 14.76947958 14 14 C13.4225 13.236875 12.845 12.47375 12.25 11.6875 C9.46170337 8.35703458 6.83470248 6.99109552 3 5 C3 4.34 3 3.68 3 3 C2.01 2.67 1.02 2.34 0 2 C0 1.34 0 0.68 0 0 Z " fill="#022809" transform="translate(254,86)"/>
<path d="M0 0 C3.04955107 3.84824302 5.2159143 8.01350419 7.5 12.34375 C8.84968366 14.73381482 10.29793896 16.85216107 12 19 C11.67 19.66 11.34 20.32 11 21 C10.34 21 9.68 21 9 21 C9 20.34 9 19.68 9 19 C8.01 18.67 7.02 18.34 6 18 C5.28272222 16.35448038 4.61674772 14.68577711 4 13 C3.34 12.34 2.68 11.68 2 11 C0.47981304 7.19953261 -0.24061997 4.09053942 0 0 Z " fill="#053210" transform="translate(35,272)"/>
<path d="M0 0 C5.14436093 0.45931794 9.29671587 1.38077218 14.0703125 3.3125 C16.96769976 4.34476753 19.96047568 4.57340009 23 5 C26.03674827 5.900318 29.02072884 6.92584101 32 8 C32 8.33 32 8.66 32 9 C20.69528951 8.27469778 10.36994629 5.51964473 0 1 C0 0.67 0 0.34 0 0 Z " fill="#32D46C" transform="translate(134,360)"/>
<path d="M0 0 C0.33 0 0.66 0 1 0 C1.86392927 10.15116898 -4.1918475 18.42546137 -9 27 C-9.66 27 -10.32 27 -11 27 C-8.84040296 21.40313855 -6.31222233 15.96675541 -3.83398438 10.50585938 C-3.48529297 9.72919922 -3.13660156 8.95253906 -2.77734375 8.15234375 C-2.46015381 7.45101318 -2.14296387 6.74968262 -1.81616211 6.02709961 C-1.01409924 4.03501824 -0.46776378 2.09333834 0 0 Z " fill="#042F0E" transform="translate(360,252)"/>
<path d="M0 0 C0.33 0.66 0.66 1.32 1 2 C-0.1123371 5.33701129 -0.62413508 5.67511464 -3.4375 7.5 C-6.13920842 9.25977667 -7.1327142 10.1990713 -9 13 C-9.99 13.33 -10.98 13.66 -12 14 C-13.42857119 15.40105576 -13.42857119 15.40105576 -14.6875 17.0625 C-15.8321875 18.5165625 -15.8321875 18.5165625 -17 20 C-18.32 19.67 -19.64 19.34 -21 19 C-18.71336873 16.99397361 -16.42114438 14.99508435 -14.125 13 C-13.14853516 12.14148438 -13.14853516 12.14148438 -12.15234375 11.265625 C-11.52714844 10.72421875 -10.90195312 10.1828125 -10.2578125 9.625 C-9.6817627 9.12226563 -9.10571289 8.61953125 -8.51220703 8.1015625 C-7 7 -7 7 -5 7 C-4.34 5.68 -3.68 4.36 -3 3 C-2.34 3 -1.68 3 -1 3 C-0.67 2.01 -0.34 1.02 0 0 Z " fill="#053C13" transform="translate(317,320)"/>
<path d="M0 0 C1 3 1 3 0.3203125 4.796875 C-3.21177521 10.56826015 -7.53676442 14.09768887 -13 18 C-14.66998649 19.32917292 -16.33857487 20.66014102 -18 22 C-18.66 21.67 -19.32 21.34 -20 21 C-19.16855469 20.25234375 -18.33710938 19.5046875 -17.48046875 18.734375 C-16.38264636 17.73976668 -15.28499933 16.74496479 -14.1875 15.75 C-13.64029297 15.25886719 -13.09308594 14.76773437 -12.52929688 14.26171875 C-10.19825794 12.14259245 -8.12958356 10.17354428 -6.23828125 7.640625 C-5.82964844 7.09921875 -5.42101562 6.5578125 -5 6 C-4.34 6 -3.68 6 -3 6 C-2.690625 5.195625 -2.38125 4.39125 -2.0625 3.5625 C-1 1 -1 1 0 0 Z " fill="#33C769" transform="translate(198,290)"/>
<path d="M0 0 C-1.02738281 0.47308594 -2.05476563 0.94617188 -3.11328125 1.43359375 C-11.25313787 5.2830471 -18.17171886 9.23581887 -24.9609375 15.21484375 C-27 17 -27 17 -29 18 C-26.97429291 10.85340603 -20.04248315 7.60156927 -14 4 C-4.07272727 -1.35757576 -4.07272727 -1.35757576 0 0 Z " fill="#35D36D" transform="translate(116,192)"/>
<path d="M0 0 C-2.125 2.5 -2.125 2.5 -5 5 C-6.99950636 5.04443347 -9.00038436 5.03920815 -11 5 C-13.18128964 5.94590504 -15.20577235 7.03704339 -17.265625 8.22265625 C-17.83796875 8.47917969 -18.4103125 8.73570312 -19 9 C-19.66 8.67 -20.32 8.34 -21 8 C-4.76235597 -2.09543663 -4.76235597 -2.09543663 0 0 Z " fill="#06260A" transform="translate(120,192)"/>
<path d="M0 0 C3.63667852 1.62469794 6.8078541 3.62707739 10 6 C9.01 6.495 9.01 6.495 8 7 C5.86328125 6.00390625 5.86328125 6.00390625 3.3125 4.5625 C-1.10461863 2.30654671 -3.97112119 1.10198593 -9 2 C-11.69989906 3.22128566 -14.28343002 4.54607301 -16.86328125 6.00390625 C-17.56839844 6.33261719 -18.27351562 6.66132812 -19 7 C-19.66 6.67 -20.32 6.34 -21 6 C-14.13037223 0.27531019 -8.99869779 -1.32010236 0 0 Z " fill="#39D470" transform="translate(198,50)"/>
<path d="M0 0 C-0.62648438 0.32613281 -1.25296875 0.65226562 -1.8984375 0.98828125 C-2.71570313 1.42527344 -3.53296875 1.86226562 -4.375 2.3125 C-5.18710938 2.74175781 -5.99921875 3.17101563 -6.8359375 3.61328125 C-9.26834043 4.96778724 -9.26834043 4.96778724 -11 8 C-13.88286805 9.60159336 -16.70551139 10.89529294 -19.8125 12 C-20.534375 12.33 -21.25625 12.66 -22 13 C-22.33 13.99 -22.66 14.98 -23 16 C-23.99 15.34 -24.98 14.68 -26 14 C-19.8698166 9.67620293 -13.73157953 5.36196704 -7.375 1.375 C-6.59898438 0.88773438 -5.82296875 0.40046875 -5.0234375 -0.1015625 C-3 -1 -3 -1 0 0 Z " fill="#33CE6A" transform="translate(113,35)"/>
<path d="M0 0 C0.66 0.33 1.32 0.66 2 1 C-3.74350649 6.94155844 -3.74350649 6.94155844 -7.6875 7.125 C-8.8321875 7.063125 -8.8321875 7.063125 -10 7 C-10 7.66 -10 8.32 -10 9 C-13.4019487 11.09350689 -16.05272412 11.17942163 -20 11 C-16.29082134 7.9316742 -12.15386782 5.89326116 -7.875 3.75 C-7.14667969 3.37359375 -6.41835938 2.9971875 -5.66796875 2.609375 C-3.80969479 1.67508569 -1.90716822 0.82993254 0 0 Z " fill="#074519" transform="translate(278,350)"/>
<path d="M0 0 C2.49427493 7.48282479 -3.76128294 18.24465617 -7 25 C-7.66 25.66 -8.32 26.32 -9 27 C-9 25.02 -9 23.04 -9 21 C-8.34 21 -7.68 21 -7 21 C-6.74476563 19.85724609 -6.74476563 19.85724609 -6.484375 18.69140625 C-4.93436119 12.08735803 -3.02278834 6.07626488 0 0 Z " fill="#012C08" transform="translate(280,277)"/>
<path d="M0 0 C1.9375 0.8125 1.9375 0.8125 4 2 C4.33 2.99 4.66 3.98 5 5 C5.99 4.67 6.98 4.34 8 4 C8.3403125 5.2375 8.3403125 5.2375 8.6875 6.5 C10.05691887 10.15178366 11.8246638 12.91459879 14.07421875 16.0703125 C15.23962344 18.49946827 14.74594306 19.4869717 14 22 C13.32453125 20.91460937 12.6490625 19.82921875 11.953125 18.7109375 C11.05213204 17.26559463 10.15108764 15.82028384 9.25 14.375 C8.8065625 13.66214844 8.363125 12.94929688 7.90625 12.21484375 C5.33665734 8.09593786 2.7163267 4.02371758 0 0 Z " fill="#022B0A" transform="translate(335,79)"/>
<path d="M0 0 C0.33 0.66 0.66 1.32 1 2 C-1.96359576 10.89078728 -6.24588945 18.61158586 -12 26 C-12.33 25.34 -12.66 24.68 -13 24 C-12.02783203 21.67749023 -12.02783203 21.67749023 -10.5078125 18.80859375 C-9.96769531 17.78185547 -9.42757813 16.75511719 -8.87109375 15.69726562 C-8.29488281 14.62154297 -7.71867187 13.54582031 -7.125 12.4375 C-6.55652344 11.35791016 -5.98804688 10.27832031 -5.40234375 9.16601562 C-1.17135347 1.17135347 -1.17135347 1.17135347 0 0 Z " fill="#37CE6D" transform="translate(276,295)"/>
<path d="M0 0 C4.44380808 1.13273539 8.26436721 2.28317615 12 5 C12 5.66 12 6.32 12 7 C14.97 7.495 14.97 7.495 18 8 C18 8.99 18 9.98 18 11 C11.95191575 9.36538263 6.19773156 6.47991227 1 3 C0.67 2.01 0.34 1.02 0 0 Z " fill="#2BCB62" transform="translate(106,346)"/>
<path d="M0 0 C-5.257305 4.97080336 -10.53248388 8.75127084 -17 12 C-15.77946141 8.33838422 -14.63217696 7.83729526 -11.4375 5.8125 C-10.61121094 5.28269531 -9.78492188 4.75289063 -8.93359375 4.20703125 C-8.29550781 3.80871094 -7.65742188 3.41039062 -7 3 C-7.33 1.68 -7.66 0.36 -8 -1 C-4.53578294 -2.23722038 -3.15772202 -1.73807388 0 0 Z " fill="#092612" transform="translate(248,339)"/>
<path d="M0 0 C0.66 0 1.32 0 2 0 C2.32870504 8.54633092 1.43546672 17.10420044 -2 25 C-2.66 25 -3.32 25 -4 25 C-3.71125 23.845 -3.4225 22.69 -3.125 21.5 C-1.53440261 14.4218416 -0.83024734 7.19842111 0 0 Z " fill="#33D76F" transform="translate(211,248)"/>
<path d="M0 0 C0.33 0.99 0.66 1.98 1 3 C0.34 3.66 -0.32 4.32 -1 5 C-1 5.99 -1 6.98 -1 8 C2.465 9.485 2.465 9.485 6 11 C6.33 10.34 6.66 9.68 7 9 C7.12375 9.639375 7.2475 10.27875 7.375 10.9375 C7.58125 11.618125 7.7875 12.29875 8 13 C8.66 13.33 9.32 13.66 10 14 C2.10177853 13.51058029 2.10177853 13.51058029 -1.5625 11.8125 C-3 10 -3 10 -3.4375 7.0625 C-2.96903694 3.78325857 -2.21663014 2.40134932 0 0 Z " fill="#02260B" transform="translate(217,340)"/>
<path d="M0 0 C0.66 0.33 1.32 0.66 2 1 C-2.95010869 7.2879759 -8.7178043 12.07037669 -15 17 C-15.33 16.01 -15.66 15.02 -16 14 C-13.1350305 11.05544802 -10.30410974 8.42949246 -7 6 C-4.64638598 4.02337178 -2.32109623 2.01465937 0 0 Z " fill="#31D56B" transform="translate(316,319)"/>
<path d="M0 0 C0.33 0 0.66 0 1 0 C1.48084266 3.16641449 1.95936294 6.33317593 2.4375 9.5 C2.57220703 10.386875 2.70691406 11.27375 2.84570312 12.1875 C3.63911249 17.45109386 4.36407437 22.71502584 5 28 C-1.84472563 20.53302658 -0.20488367 9.37911924 0 0 Z " fill="#033B11" transform="translate(17,208)"/>
<path d="M0 0 C5.54178538 -0.46254272 9.37941785 1.08161571 14.3125 3.3125 C15.40401367 3.7755957 15.40401367 3.7755957 16.51757812 4.24804688 C18.38734297 5.07576197 20.19976203 6.03032165 22 7 C22.33 7.99 22.66 8.98 23 10 C22.36707031 9.74476562 21.73414063 9.48953125 21.08203125 9.2265625 C16.95957973 7.58594174 12.82350494 5.98108874 8.6875 4.375 C7.85154297 4.05015625 7.01558594 3.7253125 6.15429688 3.390625 C4.10294987 2.59353017 2.05151525 1.79666167 0 1 C0 0.67 0 0.34 0 0 Z " fill="#04320E" transform="translate(254,21)"/>
<path d="M0 0 C0.33 0.99 0.66 1.98 1 3 C-0.58203125 5.48046875 -0.58203125 5.48046875 -2.8125 8.1875 C-3.54082031 9.08855469 -4.26914062 9.98960937 -5.01953125 10.91796875 C-5.99986328 11.94857422 -5.99986328 11.94857422 -7 13 C-7.66 13 -8.32 13 -9 13 C-9.226875 13.5775 -9.45375 14.155 -9.6875 14.75 C-11.33038023 17.5663661 -13.39533227 19.08077114 -16 21 C-13.27168152 15.08864329 -9.64592941 10.52036375 -5 6 C-4.67 5.34 -4.34 4.68 -4 4 C-3.34 4 -2.68 4 -2 4 C-2 3.34 -2 2.68 -2 2 C-1.34 2 -0.68 2 0 2 C0 1.34 0 0.68 0 0 Z " fill="#36D771" transform="translate(335,297)"/>
<path d="M0 0 C0.33 0.66 0.66 1.32 1 2 C0.56429687 2.58265625 0.12859375 3.1653125 -0.3203125 3.765625 C-4.98853712 10.19201214 -8.62974474 16.81506022 -12 24 C-13.06837988 21.29428053 -13.09303936 20.23314143 -11.99609375 17.484375 C-4.72093023 4.72093023 -4.72093023 4.72093023 0 0 Z " fill="#34D36F" transform="translate(85,210)"/>
<path d="M0 0 C9.40837985 1.17430001 17.59923167 6.28122447 25 12 C24.01 12.495 24.01 12.495 23 13 C20.56640625 11.7421875 20.56640625 11.7421875 17.5625 9.875 C11.87774254 6.44489846 6.1005261 3.60593339 0 1 C0 0.67 0 0.34 0 0 Z " fill="#36D46E" transform="translate(232,132)"/>
<path d="M0 0 C-0.99 0 -1.98 0 -3 0 C-3 0.66 -3 1.32 -3 2 C-6.97821926 5.08064781 -10.36808079 5.45645237 -15.3125 5.6875 C-16.56675781 5.75324219 -17.82101563 5.81898438 -19.11328125 5.88671875 C-20.06589844 5.92410156 -21.01851562 5.96148437 -22 6 C-18.80266426 3.86844284 -16.11211032 3.01730169 -12.4375 1.9375 C-2.91705673 -0.87511702 -2.91705673 -0.87511702 0 0 Z " fill="#073E15" transform="translate(258,362)"/>
<path d="M0 0 C1.15886546 3.69127647 0.54599706 6.04582832 -0.47949219 9.76171875 C-1.37997371 13.63395825 -1.4701795 17.53917557 -1.625 21.5 C-1.66367188 22.32242187 -1.70234375 23.14484375 -1.7421875 23.9921875 C-1.83531692 25.9944701 -1.91868985 27.99720262 -2 30 C-2.33 30 -2.66 30 -3 30 C-3.02927632 26.47918442 -3.04689119 22.95840061 -3.0625 19.4375 C-3.07087891 18.44685547 -3.07925781 17.45621094 -3.08789062 16.43554688 C-3.10528365 11.20024622 -3.11879924 6.12958895 -2 1 C-1.34 0.67 -0.68 0.34 0 0 Z " fill="#2CB95C" transform="translate(71,234)"/>
<path d="M0 0 C1 2 1 2 0.375 4.3125 C-1.32599118 7.63716458 -3.10804868 9.63385801 -6 12 C-9.3125 12.8125 -9.3125 12.8125 -12 13 C-11.34 12.01 -10.68 11.02 -10 10 C-9.34 10 -8.68 10 -8 10 C-8 9.34 -8 8.68 -8 8 C-6.52295788 6.74772516 -5.04172601 5.49833478 -3.5078125 4.31640625 C-1.73237056 2.88235909 -1.73237056 2.88235909 0 0 Z " fill="#062B10" transform="translate(238,321)"/>
<path d="M0 0 C0 0.66 0 1.32 0 2 C-1.59711646 3.39131742 -3.25352684 4.71517335 -4.9375 6 C-9.48470632 9.20738076 -9.48470632 9.20738076 -11.31640625 14.1640625 C-11.39761719 14.97617187 -11.47882813 15.78828125 -11.5625 16.625 C-11.64628906 17.44226563 -11.73007813 18.25953125 -11.81640625 19.1015625 C-11.87699219 19.72804688 -11.93757812 20.35453125 -12 21 C-14.28377402 16.9635622 -14.13537771 14.54151083 -13 10 C-11.0625 7.5625 -11.0625 7.5625 -9 6 C-8.34 6 -7.68 6 -7 6 C-6.67 5.01 -6.34 4.02 -6 3 C-2.55555556 0 -2.55555556 0 0 0 Z " fill="#34D66F" transform="translate(199,313)"/>
<path d="M0 0 C2.64 0 5.28 0 8 0 C8.45375 0.969375 8.9075 1.93875 9.375 2.9375 C10.65786221 6.07079582 10.65786221 6.07079582 13 7 C13 7.66 13 8.32 13 9 C8.67535468 7.4274017 4.87821405 5.4611743 1 3 C0.67 2.01 0.34 1.02 0 0 Z " fill="#06230C" transform="translate(283,33)"/>
<path d="M0 0 C0.66 0.33 1.32 0.66 2 1 C-6.261959 12.70615034 -6.261959 12.70615034 -11 17 C-11 13.07289862 -9.67475926 12.04272956 -7.1875 9.0625 C-4.72215878 6.08523 -2.29067167 3.11444634 0 0 Z " fill="#012409" transform="translate(260,320)"/>
<path d="M0 0 C0.33 0.99 0.66 1.98 1 3 C0.40832031 3.43570313 -0.18335937 3.87140625 -0.79296875 4.3203125 C-5.50848408 7.87425717 -9.43698017 11.28761893 -13 16 C-14.32 15.67 -15.64 15.34 -17 15 C-16.01 14.67 -15.02 14.34 -14 14 C-13.67 13.01 -13.34 12.02 -13 11 C-11.328125 9.31640625 -11.328125 9.31640625 -9.25 7.5625 C-8.53328125 6.9540625 -7.8165625 6.345625 -7.078125 5.71875 C-4.73985682 3.78484399 -2.39123933 1.86815572 0 0 Z " fill="#31C867" transform="translate(86,50)"/>
<path d="M0 0 C0.66 0.33 1.32 0.66 2 1 C-1.28081744 5.34225838 -3.76291528 8.03609323 -9 10 C-11.875 10.1875 -11.875 10.1875 -14 10 C-9.57557408 6.28919117 -4.82596069 3.15422267 0 0 Z " fill="#03300E" transform="translate(294,340)"/>
<path d="M0 0 C3.18265812 2.97732534 4.84579537 4.8518936 5.16796875 9.33984375 C5.17441406 10.19707031 5.18085938 11.05429687 5.1875 11.9375 C5.20167969 12.79214844 5.21585937 13.64679688 5.23046875 14.52734375 C4.98703556 17.13909303 4.3178268 18.75500652 3 21 C1.97132613 17.9139784 1.95914413 15.96751315 2.0625 12.75 C2.11863696 8.05320796 1.56792969 4.40980225 0 0 Z " fill="#002805" transform="translate(278,255)"/>
<path d="M0 0 C-1.72850345 0.79311367 -3.45783354 1.5844259 -5.1875 2.375 C-6.63189453 3.03628906 -6.63189453 3.03628906 -8.10546875 3.7109375 C-9.06066406 4.13632812 -10.01585937 4.56171875 -11 5 C-11.86238281 5.38414062 -12.72476563 5.76828125 -13.61328125 6.1640625 C-16 7 -16 7 -20 7 C-20 6.34 -20 5.68 -20 5 C-19.43152344 4.81824219 -18.86304688 4.63648438 -18.27734375 4.44921875 C-14.48079431 3.21328028 -10.80120128 1.9547243 -7.1875 0.25 C-3.86017895 -1.05483179 -3.20415723 -1.02866653 0 0 Z " fill="#012A09" transform="translate(171,316)"/>
<path d="M0 0 C4.59152478 6.88728717 6.35845035 15.82024199 7 24 C3.95855017 20.57510091 2.90496921 16.91112258 1.8125 12.5625 C1.63525391 11.90701172 1.45800781 11.25152344 1.27539062 10.57617188 C0.34051182 6.97742991 -0.20773111 3.71767047 0 0 Z " fill="#37D66F" transform="translate(22,232)"/>
<path d="M0 0 C0.86625 0.37125 0.86625 0.37125 1.75 0.75 C0.43 1.74 -0.89 2.73 -2.25 3.75 C1.215 3.255 1.215 3.255 4.75 2.75 C1.46195019 5.66227269 -0.84885603 7.24701212 -5.25 7.75 C-6 6 -6 6 -6.25 3.75 C-3.25 -0.36111111 -3.25 -0.36111111 0 0 Z " fill="#071B0C" transform="translate(103.25,32.25)"/>
<path d="M0 0 C0.66 0.33 1.32 0.66 2 1 C0.88200014 2.33920838 -0.24461897 3.67122556 -1.375 5 C-2.31472656 6.11375 -2.31472656 6.11375 -3.2734375 7.25 C-4.12808594 8.11625 -4.12808594 8.11625 -5 9 C-5.66 9 -6.32 9 -7 9 C-7 9.66 -7 10.32 -7 11 C-9.31 12.32 -11.62 13.64 -14 15 C-12.67359402 11.02078205 -10.13782788 9.59896496 -6.8203125 7.37109375 C-4.03227797 5.27109349 -2.1188632 2.76094296 0 0 Z " fill="#36CE6F" transform="translate(237,320)"/>
<path d="M0 0 C0.33 0.99 0.66 1.98 1 3 C0.34 3 -0.32 3 -1 3 C-1.226875 3.845625 -1.45375 4.69125 -1.6875 5.5625 C-3.25736398 9.67404851 -5.34299048 12.50393484 -8 16 C-8.99 15.67 -9.98 15.34 -11 15 C-7.37 10.05 -3.74 5.1 0 0 Z " fill="#022508" transform="translate(250,305)"/>
<path d="M0 0 C0.33 0 0.66 0 1 0 C1.35044272 6.30796903 0.74090218 12.21365095 -2 18 C-2.99 18.33 -3.98 18.66 -5 19 C-4.35561067 16.39546825 -3.7095496 13.7913709 -3.0625 11.1875 C-2.88009766 10.44951172 -2.69769531 9.71152344 -2.50976562 8.95117188 C-1.7577385 5.92939016 -0.98514427 2.95543282 0 0 Z " fill="#04360E" transform="translate(366,232)"/>
<path d="M0 0 C1.32 0.33 2.64 0.66 4 1 C3.34 1.70125 2.68 2.4025 2 3.125 C-0.31881474 6.45829619 -0.52981019 8.02642355 0 12 C0.66 12.66 1.32 13.32 2 14 C0.68 14 -0.64 14 -2 14 C-3.23050689 11.53898622 -2.98600075 10.27573817 -2.6875 7.5625 C-2.60886719 6.78003906 -2.53023437 5.99757813 -2.44921875 5.19140625 C-2 3 -2 3 0 0 Z " fill="#2ED269" transform="translate(215,338)"/>
<path d="M0 0 C4.24292532 1.60630825 8.27025107 3.5768162 12.3125 5.625 C12.95767578 5.94984375 13.60285156 6.2746875 14.26757812 6.609375 C15.84597541 7.40441956 17.42311694 8.20195634 19 9 C19 9.33 19 9.66 19 10 C14.54063718 10.3913152 12.02208724 9.21759262 8.1875 7 C7.21167969 6.443125 6.23585938 5.88625 5.23046875 5.3125 C4.12638672 4.6628125 4.12638672 4.6628125 3 4 C3 3.34 3 2.68 3 2 C2.01 1.67 1.02 1.34 0 1 C0 0.67 0 0.34 0 0 Z " fill="#32D16D" transform="translate(95,311)"/>
<path d="M0 0 C5.11542642 2.13142768 10.06296928 4.48567714 15 7 C16.33286778 7.66759695 17.66607565 8.33451668 19 9 C13.70549486 9.45059618 10.69418378 8.11096216 6.125 5.5 C5.23554687 4.99919922 5.23554687 4.99919922 4.328125 4.48828125 C2.87895283 3.67020018 1.43853019 2.83665257 0 2 C0 1.34 0 0.68 0 0 Z " fill="#012A09" transform="translate(109,350)"/>
<path d="M0 0 C3.20547958 1.43024761 5.5354446 3.20433073 8.125 5.5625 C10.86038045 8.07679216 10.86038045 8.07679216 14 10 C14 10.66 14 11.32 14 12 C14.99 12.33 15.98 12.66 17 13 C16.01 13.33 15.02 13.66 14 14 C12.41224451 12.60919892 10.82999061 11.21211596 9.25 9.8125 C8.36828125 9.03519531 7.4865625 8.25789063 6.578125 7.45703125 C4.12113732 5.11544754 2.05137234 2.69841735 0 0 Z " fill="#36D570" transform="translate(70,319)"/>
<path d="M0 0 C-1.43048694 3.18283344 -3.19017243 5.57915658 -5.5 8.1875 C-6.1084375 8.88230469 -6.716875 9.57710938 -7.34375 10.29296875 C-9 12 -9 12 -11 13 C-10.42473475 9.14129768 -8.64227602 7.10501432 -6.0625 4.25 C-5.35222656 3.45078125 -4.64195312 2.6515625 -3.91015625 1.828125 C-2 0 -2 0 0 0 Z " fill="#012507" transform="translate(225,313)"/>
<path d="M0 0 C0.66 0 1.32 0 2 0 C0.42986223 5.96652354 -2.75029782 10.82909025 -6 16 C-6.66 15.34 -7.32 14.68 -8 14 C-7.4225 13.175 -6.845 12.35 -6.25 11.5 C-3.80120261 7.84429532 -1.89208922 3.96533591 0 0 Z " fill="#012507" transform="translate(269,304)"/>
<path d="M0 0 C1.66645757 3.08549348 2.73761596 6.12675325 3.6875 9.5 C3.95949219 10.4384375 4.23148438 11.376875 4.51171875 12.34375 C5.00140894 15.00766466 4.88693174 16.47611372 4 19 C2.19769832 15.17010894 1.80377759 12.21878192 2 8 C1.01 8 0.02 8 -1 8 C-0.67 5.36 -0.34 2.72 0 0 Z " fill="#04300D" transform="translate(22,237)"/>
<path d="M0 0 C-2.0364495 0.84600276 -4.07943487 1.6762825 -6.125 2.5 C-7.83042969 3.19609375 -7.83042969 3.19609375 -9.5703125 3.90625 C-12.9471645 4.98315041 -15.48614728 5.21360807 -19 5 C-16.01243632 3.00829088 -13.44575614 1.97092021 -10.0625 0.8125 C-9.02222656 0.44769531 -7.98195312 0.08289063 -6.91015625 -0.29296875 C-4.04543948 -0.98896034 -2.71018643 -1.02529944 0 0 Z " fill="#32CA69" transform="translate(154,18)"/>
<path d="M0 0 C0.60972656 0.19851562 1.21945313 0.39703125 1.84765625 0.6015625 C0.08334656 1.94351622 -1.68902285 3.27487918 -3.46484375 4.6015625 C-4.45097656 5.3440625 -5.43710938 6.0865625 -6.453125 6.8515625 C-9.15234375 8.6015625 -9.15234375 8.6015625 -12.15234375 8.6015625 C-3.21168751 -0.59454106 -3.21168751 -0.59454106 0 0 Z " fill="#02290B" transform="translate(95.15234375,42.3984375)"/>
<path d="M0 0 C4.46926822 1.36560973 6.23349835 3.31133113 9 7 C9.99 7.66 10.98 8.32 12 9 C11.67 9.99 11.34 10.98 11 12 C9.2740862 10.2740862 7.5483833 8.54797434 5.82421875 6.8203125 C4.41316013 5.41227542 2.99023409 4.01612552 1.5625 2.625 C0 1 0 1 0 0 Z " fill="#30CF69" transform="translate(262,89)"/>
<path d="M0 0 C0.33 0.66 0.66 1.32 1 2 C-0.12005631 5.36016893 -1.37211797 6.69064913 -4 9 C-4.66 9 -5.32 9 -6 9 C-6 9.66 -6 10.32 -6 11 C-6.99 10.67 -7.98 10.34 -9 10 C-7.87970983 8.51726301 -6.75361382 7.03891114 -5.625 5.5625 C-4.99851562 4.73878906 -4.37203125 3.91507812 -3.7265625 3.06640625 C-2 1 -2 1 0 0 Z " fill="#2DD169" transform="translate(262,322)"/>
<path d="M0 0 C0.99 0.33 1.98 0.66 3 1 C3 1.66 3 2.32 3 3 C3.928125 3.37125 3.928125 3.37125 4.875 3.75 C7.39272383 5.23101402 8.08392564 6.25177691 9 9 C8.67 9.99 8.34 10.98 8 12 C6.66081194 10.37982158 5.3288031 8.75370657 4 7.125 C3.2575 6.22007812 2.515 5.31515625 1.75 4.3828125 C0 2 0 2 0 0 Z " fill="#022B0B" transform="translate(78,290)"/>
<path d="M0 0 C4.00748653 0.58487641 6.85736768 1.84394575 10.3125 3.9375 C11.19550781 4.46214844 12.07851562 4.98679687 12.98828125 5.52734375 C13.65214844 6.01332031 14.31601563 6.49929687 15 7 C15 7.66 15 8.32 15 9 C11.32305352 7.62859834 8.04681411 5.96304199 4.6875 3.9375 C3.80449219 3.41027344 2.92148438 2.88304688 2.01171875 2.33984375 C1.34785156 1.89769531 0.68398437 1.45554687 0 1 C0 0.67 0 0.34 0 0 Z " fill="#35CC6B" transform="translate(234,73)"/>
<path d="M0 0 C0.66 0.66 1.32 1.32 2 2 C-0.97 6.29 -3.94 10.58 -7 15 C-7.33 14.01 -7.66 13.02 -8 12 C-6.71937515 10.2925002 -5.37368345 8.63356951 -4 7 C-2.58342617 4.70581814 -1.29834405 2.36484094 0 0 Z " fill="#37CC6A" transform="translate(247,305)"/>
<path d="M0 0 C1.875 0.3125 1.875 0.3125 4 1 C4.66 1.99 5.32 2.98 6 4 C7.96752828 5.06246527 9.96587579 6.07137808 12 7 C12 7.66 12 8.32 12 9 C7.50985376 7.50328459 3.52151236 5.16631659 0 2 C0 1.34 0 0.68 0 0 Z " fill="#053812" transform="translate(92,306)"/>
<path d="M0 0 C0.97226335 2.59072612 1.11611108 3.69699083 0.109375 6.32421875 C-0.33921875 7.10410156 -0.7878125 7.88398438 -1.25 8.6875 C-1.68828125 9.47511719 -2.1265625 10.26273438 -2.578125 11.07421875 C-4 13 -4 13 -7 14 C-5.23570801 9.02790438 -2.6060834 4.56561939 0 0 Z " fill="#033511" transform="translate(81,217)"/>
<path d="M0 0 C0.66 0.33 1.32 0.66 2 1 C1.67 1.99 1.34 2.98 1 4 C0.34 4 -0.32 4 -1 4 C-1.33 4.99 -1.66 5.98 -2 7 C-4.0625 7.6875 -4.0625 7.6875 -6 8 C-6 8.66 -6 9.32 -6 10 C-6.66 9.67 -7.32 9.34 -8 9 C-6.85459775 7.68712379 -5.70866567 6.37470979 -4.5625 5.0625 C-3.92441406 4.33160156 -3.28632812 3.60070312 -2.62890625 2.84765625 C-1.77458541 1.87860647 -0.91348825 0.91348825 0 0 Z " fill="#043A12" transform="translate(92,205)"/>
<path d="M0 0 C2 3 2 3 1.86328125 5.12109375 C0.02968479 12.83260226 0.02968479 12.83260226 -3 16 C-2.40984815 10.49191603 -1.43336231 5.35121931 0 0 Z " fill="#02270B" transform="translate(225,269)"/>
<path d="M0 0 C0.70125 -0.02578125 1.4025 -0.0515625 2.125 -0.078125 C2.74375 0.03015625 3.3625 0.1384375 4 0.25 C4.66 1.24 5.32 2.23 6 3.25 C5.39671875 3.23839844 4.7934375 3.22679687 4.171875 3.21484375 C3.37265625 3.20582031 2.5734375 3.19679687 1.75 3.1875 C0.96109375 3.17589844 0.1721875 3.16429687 -0.640625 3.15234375 C-2.90691002 3.24614694 -4.8288895 3.61758937 -7 4.25 C-6.67 3.26 -6.34 2.27 -6 1.25 C-3.78704384 0.14352192 -2.45327301 0.05411632 0 0 Z " fill="#02360E" transform="translate(272,251.75)"/>
<path d="M0 0 C0.53625 0.37125 1.0725 0.7425 1.625 1.125 C0.965 1.125 0.305 1.125 -0.375 1.125 C0.285 2.445 0.945 3.765 1.625 5.125 C-1.675 4.135 -4.975 3.145 -8.375 2.125 C-8.375 1.795 -8.375 1.465 -8.375 1.125 C-2.95961538 -1.09038462 -2.95961538 -1.09038462 0 0 Z " fill="#062D12" transform="translate(238.375,128.875)"/>
<path d="M0 0 C0.66 0.33 1.32 0.66 2 1 C0.35821735 5.77609498 -2.26546702 9.79382904 -5 14 C-6 11 -6 11 -4.78515625 8.30078125 C-4.21667969 7.31464844 -3.64820313 6.32851562 -3.0625 5.3125 C-2.49660156 4.31863281 -1.93070313 3.32476562 -1.34765625 2.30078125 C-0.90292969 1.54152344 -0.45820312 0.78226562 0 0 Z " fill="#012D08" transform="translate(44,93)"/>
<path d="M0 0 C3.79303725 1.00193437 6.71536341 1.81024227 10 4 C10 4.66 10 5.32 10 6 C11.32 6.33 12.64 6.66 14 7 C13.01 7.33 12.02 7.66 11 8 C8.30078125 6.6015625 8.30078125 6.6015625 5.3125 4.625 C4.31863281 3.97789063 3.32476562 3.33078125 2.30078125 2.6640625 C1.16189453 1.84035156 1.16189453 1.84035156 0 1 C0 0.67 0 0.34 0 0 Z " fill="#32C265" transform="translate(221,65)"/>
<path d="M0 0 C-0.66 1.65 -1.32 3.3 -2 5 C-5.3 4.67 -8.6 4.34 -12 4 C-8.36043372 1.57362248 -4.44144233 0 0 0 Z " fill="#2DD168" transform="translate(159,321)"/>
<path d="M0 0 C0.33 0 0.66 0 1 0 C0.88490339 1.41750563 0.75746342 2.83401169 0.625 4.25 C0.55539062 5.03890625 0.48578125 5.8278125 0.4140625 6.640625 C-0.01507113 9.085877 -0.78600638 10.84836903 -2 13 C-2.66 13 -3.32 13 -4 13 C-3.52343588 11.20763933 -3.04366502 9.41613103 -2.5625 7.625 C-2.29566406 6.62726563 -2.02882813 5.62953125 -1.75390625 4.6015625 C-1 2 -1 2 0 0 Z " fill="#04330E" transform="translate(259,282)"/>
<path d="M0 0 C1.12588014 0.95729916 2.2506715 1.91587895 3.375 2.875 C4.00148438 3.40867187 4.62796875 3.94234375 5.2734375 4.4921875 C6.55836651 5.61432007 7.79371975 6.79371975 9 8 C5.65626525 7.44271087 2.96687001 6.64826111 0 5 C0 3.35 0 1.7 0 0 Z " fill="#032E0D" transform="translate(74,324)"/>
<path d="M0 0 C0.99 0.33 1.98 0.66 3 1 C3 2.65 3 4.3 3 6 C1.35 6.33 -0.3 6.66 -2 7 C-1.125 1.125 -1.125 1.125 0 0 Z " fill="#07110A" transform="translate(371,217)"/>
<path d="M0 0 C0 0.66 0 1.32 0 2 C-2 4 -2 4 -5 5 C-7.6875 4.5625 -7.6875 4.5625 -10 4 C-7.02096266 1.02096266 -4.19714671 0 0 0 Z " fill="#2CD768" transform="translate(133,24)"/>
<path d="M0 0 C0 0.99 0 1.98 0 3 C-1.96875 4.60546875 -1.96875 4.60546875 -4.5 6.1875 C-5.3353125 6.71730469 -6.170625 7.24710937 -7.03125 7.79296875 C-7.6809375 8.19128906 -8.330625 8.58960938 -9 9 C-9 8.01 -9 7.02 -9 6 C-7.03125 4.39453125 -7.03125 4.39453125 -4.5 2.8125 C-3.6646875 2.28269531 -2.829375 1.75289063 -1.96875 1.20703125 C-0.99421875 0.60955078 -0.99421875 0.60955078 0 0 Z " fill="#001F03" transform="translate(241,342)"/>
<path d="M0 0 C0.66 0.33 1.32 0.66 2 1 C-0.31 4.3 -2.62 7.6 -5 11 C-5.33 10.01 -5.66 9.02 -6 8 C-4.78515625 5.95703125 -4.78515625 5.95703125 -3.0625 3.8125 C-2.49660156 3.09707031 -1.93070313 2.38164062 -1.34765625 1.64453125 C-0.90292969 1.10183594 -0.45820313 0.55914062 0 0 Z " fill="#01290A" transform="translate(232,302)"/>
<path d="M0 0 C0.6875 1.6875 0.6875 1.6875 1 4 C-0.1875 6.6875 -0.1875 6.6875 -2 9 C-4.1875 9.8125 -4.1875 9.8125 -6 10 C-5.67 9.01 -5.34 8.02 -5 7 C-4.34 7 -3.68 7 -3 7 C-2.690625 6.21625 -2.38125 5.4325 -2.0625 4.625 C-1 2 -1 2 0 0 Z " fill="#03360E" transform="translate(342,289)"/>
<path d="M0 0 C5.02692063 0.45699278 8.14896261 2.99241748 12 6 C11.01 6.495 11.01 6.495 10 7 C8.0546875 6.22265625 8.0546875 6.22265625 5.875 5.0625 C5.15054688 4.68222656 4.42609375 4.30195312 3.6796875 3.91015625 C3.12539062 3.60980469 2.57109375 3.30945312 2 3 C2 2.34 2 1.68 2 1 C1.34 0.67 0.68 0.34 0 0 Z " fill="#34D471" transform="translate(208,57)"/>
<path d="M0 0 C0.66 0.33 1.32 0.66 2 1 C-0.25740623 3.33524782 -2.2805761 5.18705073 -5 7 C-5.99 6.67 -6.98 6.34 -8 6 C-5.38485683 3.87961365 -2.80362384 1.86908256 0 0 Z " fill="#02300D" transform="translate(278,350)"/>
<path d="M0 0 C0.66 0 1.32 0 2 0 C1.979375 0.9075 1.95875 1.815 1.9375 2.75 C1.9889755 5.42672588 2.2215017 7.46988052 3 10 C2.01 10 1.02 10 0 10 C-1.125 2.25 -1.125 2.25 0 0 Z " fill="#28DD6A" transform="translate(205,276)"/>
<path d="M0 0 C1.23593891 3.70781672 0.5678132 4.67510253 -0.9375 8.1875 C-1.31777344 9.08855469 -1.69804687 9.98960937 -2.08984375 10.91796875 C-2.54037109 11.94857422 -2.54037109 11.94857422 -3 13 C-4.15019009 9.54942972 -3.80497206 8.69840756 -2.625 5.375 C-2.34914062 4.57835937 -2.07328125 3.78171875 -1.7890625 2.9609375 C-1 1 -1 1 0 0 Z " fill="#012E09" transform="translate(244,277)"/>
<path d="M0 0 C2 1.75 2 1.75 4 4 C4 5.32 4 6.64 4 8 C3.01 8 2.02 8 1 8 C0.67 8.66 0.34 9.32 0 10 C0.33 8.35 0.66 6.7 1 5 C0.34 5 -0.32 5 -1 5 C-0.67 3.35 -0.34 1.7 0 0 Z " fill="#080C0A" transform="translate(17,144)"/>
<path d="M0 0 C0.66 0 1.32 0 2 0 C2.67154933 1.28913487 3.33708859 2.58140204 4 3.875 C4.37125 4.59429687 4.7425 5.31359375 5.125 6.0546875 C6 8 6 8 6 10 C3 9 3 9 1.3125 6.125 C0 3 0 3 0 0 Z " fill="#01310C" transform="translate(281,114)"/>
<path d="M0 0 C3.99500618 1.3697164 6.80009492 3.25722422 10 6 C5.8333396 5.52651586 3.07115285 4.95303159 0 2 C0 1.34 0 0.68 0 0 Z " fill="#012F0D" transform="translate(99,344)"/>
<path d="M0 0 C0.66 0.33 1.32 0.66 2 1 C0.06745228 3.0245738 -1.63158688 4.42105792 -4 6 C-6.1875 5.625 -6.1875 5.625 -8 5 C-6.71475739 4.13619741 -5.42157581 3.28419631 -4.125 2.4375 C-3.04605469 1.72400391 -3.04605469 1.72400391 -1.9453125 0.99609375 C-1.30335938 0.66738281 -0.66140625 0.33867187 0 0 Z " fill="#33CA6A" transform="translate(176,312)"/>
<path d="M0 0 C1.32 0.66 2.64 1.32 4 2 C2.87926138 2.83905565 1.75325453 3.67107831 0.625 4.5 C-0.00148437 4.9640625 -0.62796875 5.428125 -1.2734375 5.90625 C-3 7 -3 7 -5 7 C-4.67 6.01 -4.34 5.02 -4 4 C-3.01 3.67 -2.02 3.34 -1 3 C-0.67 2.01 -0.34 1.02 0 0 Z " fill="#032A0B" transform="translate(176,308)"/>
<path d="M0 0 C2.96404505 2.80804268 5.44499019 5.18315774 7 9 C5.68 8.67 4.36 8.34 3 8 C3 7.01 3 6.02 3 5 C2.01 4.67 1.02 4.34 0 4 C0 2.68 0 1.36 0 0 Z " fill="#053D13" transform="translate(47,293)"/>
<path d="M0 0 C0.66 0.33 1.32 0.66 2 1 C-0.31 3.31 -2.62 5.62 -5 8 C-5.66 7.67 -6.32 7.34 -7 7 C-2.25 1.125 -2.25 1.125 0 0 Z " fill="#012308" transform="translate(338,298)"/>
<path d="M0 0 C-0.33 0.99 -0.66 1.98 -1 3 C-3.06640625 3.94921875 -3.06640625 3.94921875 -5.5625 4.6875 C-6.38878906 4.93886719 -7.21507813 5.19023437 -8.06640625 5.44921875 C-8.70449219 5.63097656 -9.34257813 5.81273437 -10 6 C-7.24414811 3.13166436 -4.18005857 0 0 0 Z " fill="#02350C" transform="translate(109,195)"/>
<path d="M0 0 C0.99 0.495 0.99 0.495 2 1 C2.6328125 3.06640625 2.6328125 3.06640625 3.125 5.5625 C3.29257812 6.38878906 3.46015625 7.21507813 3.6328125 8.06640625 C3.75398438 8.70449219 3.87515625 9.34257813 4 10 C3.67 9.34 3.34 8.68 3 8 C2.01 7.67 1.02 7.34 0 7 C0 4.69 0 2.38 0 0 Z " fill="#0FE354" transform="translate(354,116)"/>
<path d="M0 0 C0.33 0.66 0.66 1.32 1 2 C1.66 2.33 2.32 2.66 3 3 C2.01 4.485 2.01 4.485 1 6 C-0.32 5.67 -1.64 5.34 -3 5 C-1.125 1.125 -1.125 1.125 0 0 Z " fill="#091A0E" transform="translate(46,88)"/>
<path d="M0 0 C0.99 0.33 1.98 0.66 3 1 C1.87926138 1.83905565 0.75325453 2.67107831 -0.375 3.5 C-1.00148438 3.9640625 -1.62796875 4.428125 -2.2734375 4.90625 C-4 6 -4 6 -6 6 C-6 5.34 -6 4.68 -6 4 C-3.1875 1.8125 -3.1875 1.8125 0 0 Z " fill="#30CC69" transform="translate(294,338)"/>
<path d="M0 0 C4.83256305 0.41421969 6.82679218 2.46413986 10 6 C5.56909529 4.79157144 3.01887244 3.48331435 0 0 Z " fill="#34D56C" transform="translate(257,146)"/>
<path d="M0 0 C3 1 3 1 4.75 3.875 C6 7 6 7 5 10 C4.16121545 8.71186658 3.32913217 7.41936744 2.5 6.125 C2.0359375 5.40570313 1.571875 4.68640625 1.09375 3.9453125 C0 2 0 2 0 0 Z " fill="#37D570" transform="translate(343,93)"/>
<path d="M0 0 C-0.33 0.66 -0.66 1.32 -1 2 C-0.34 2.33 0.32 2.66 1 3 C-2.71888239 2.49287967 -5.73454239 1.88391785 -9 0 C-2.25 -1.125 -2.25 -1.125 0 0 Z " fill="#28CF63" transform="translate(133,357)"/>
<path d="M0 0 C0.66 0.33 1.32 0.66 2 1 C1.67 1.99 1.34 2.98 1 4 C-2.5625 5.1875 -2.5625 5.1875 -6 6 C-4 4 -2 2 0 0 Z " fill="#073818" transform="translate(224,334)"/>
<path d="M0 0 C0.99 0.33 1.98 0.66 3 1 C1.25 3.0625 1.25 3.0625 -1 5 C-3.25 4.75 -3.25 4.75 -5 4 C-2.6875 1.9375 -2.6875 1.9375 0 0 Z " fill="#022408" transform="translate(301,335)"/>
<path d="M0 0 C0 3 0 3 -2 6 C-4 6.8125 -4 6.8125 -6 7 C-6.66 6.34 -7.32 5.68 -8 5 C-6.20963542 3.99088542 -4.41927083 2.98177083 -2.62890625 1.97265625 C-1.02121854 1.1027487 -1.02121854 1.1027487 0 0 Z " fill="#2BC764" transform="translate(209,331)"/>
<path d="M0 0 C6.625 0.75 6.625 0.75 10 3 C10 3.66 10 4.32 10 5 C5 3 5 3 0 1 C0 0.67 0 0.34 0 0 Z " fill="#33CE69" transform="translate(163,193)"/>
<path d="M0 0 C3.80984844 2.77079887 4.06840752 6.62868145 5 11 C1.92893485 9.46446743 1.32812424 7.07883346 0 4 C0 2.68 0 1.36 0 0 Z " fill="#3ED670" transform="translate(357,119)"/>
<path d="M0 0 C1.9375 0.8125 1.9375 0.8125 4 2 C4.33 2.99 4.66 3.98 5 5 C5.99 4.67 6.98 4.34 8 4 C7.67 4.99 7.34 5.98 7 7 C3.17053157 5.54744301 1.87949705 3.57104439 0 0 Z " fill="#001D05" transform="translate(335,79)"/>
<path d="M0 0 C-7.5 5 -7.5 5 -10 5 C-9 2 -9 2 -7.25 0.8125 C-4.70039426 -0.10819096 -2.69076919 -0.14948718 0 0 Z " fill="#02350F" transform="translate(118,30)"/>
<path d="M0 0 C0.66 0.33 1.32 0.66 2 1 C0.8125 3 0.8125 3 -1 5 C-3.6875 5.25 -3.6875 5.25 -6 5 C-5.195625 4.360625 -4.39125 3.72125 -3.5625 3.0625 C-1.7249496 1.59396498 -1.7249496 1.59396498 0 0 Z " fill="#26BC59" transform="translate(238,346)"/>
<path d="M0 0 C0.99 0.33 1.98 0.66 3 1 C1.35 2.65 -0.3 4.3 -2 6 C-2 4.35 -2 2.7 -2 1 C-1.34 0.67 -0.68 0.34 0 0 Z " fill="#2DD46A" transform="translate(206,303)"/>
<path d="M0 0 C0.33 0 0.66 0 1 0 C1 2.97 1 5.94 1 9 C0.01 9.33 -0.98 9.66 -2 10 C-1.34 6.7 -0.68 3.4 0 0 Z " fill="#33CA66" transform="translate(282,272)"/>
<path d="M0 0 C0.66 0.33 1.32 0.66 2 1 C1.67 2.32 1.34 3.64 1 5 C-1.97 4.67 -4.94 4.34 -8 4 C-8 3.67 -8 3.34 -8 3 C-5.69 3 -3.38 3 -1 3 C-0.67 2.01 -0.34 1.02 0 0 Z " fill="#24E668" transform="translate(158,185)"/>
</svg>
